# Blender 4.0.1
# www.blender.org
o portae
v -1.031625 0.004630 0.086081
v -1.031625 0.004630 -0.086081
v 0.000000 0.004630 -0.086081
v 0.000000 2.067880 -0.086081
v -0.000065 1.533147 0.163126
v -0.101594 1.533147 0.171183
v -1.031625 0.494566 0.086081
v -1.031625 0.796762 0.086081
v -1.031625 1.209412 0.086081
v -1.031625 1.533183 0.086081
v -1.031625 1.533183 -0.086081
v -1.031625 1.209412 -0.086081
v -1.031625 0.796762 -0.086081
v -1.031625 0.494566 -0.086081
v -0.101402 2.067843 0.171183
v -0.000065 2.067843 0.163126
v -0.000065 0.004594 0.163126
v -0.101571 0.004594 0.171183
v 0.000000 1.533183 -0.086081
v 0.231535 1.209412 -0.086081
v 0.231535 0.796762 -0.086081
v 0.000000 0.494566 -0.086081
v -0.737283 2.067880 0.086081
v -1.031625 1.773538 0.086081
v -1.031625 1.773538 -0.086081
v -0.737283 2.067880 -0.086081
v -1.031625 0.934311 0.086081
v -1.031625 1.071861 0.086081
v -1.031625 1.071861 -0.086081
v -1.031625 0.934311 -0.086081
v -0.101769 0.494530 0.171183
v -0.000065 0.494530 0.163126
v 0.231535 1.071861 -0.086081
v 0.231535 0.934311 -0.086081
v 0.000000 0.004630 0.078025
v -0.101506 0.004630 0.086081
v -0.101337 2.067880 0.086081
v 0.000000 2.067880 0.078025
v -0.101529 1.533183 0.086081
v 0.000000 1.533183 0.078025
v 0.130103 1.209412 0.086081
v 0.231535 1.209412 0.078025
v 0.129987 0.796762 0.086081
v 0.231535 0.796762 0.078025
v 0.000000 0.494566 0.078025
v -0.101704 0.494566 0.086081
v 0.130429 1.071861 0.086081
v 0.231535 1.071861 0.078025
v 0.231535 0.934311 0.078025
v 0.130392 0.934311 0.086081
v 0.130038 1.209375 0.171183
v 0.231470 1.209375 0.163126
v 0.231470 0.934275 0.163126
v 0.130326 0.934275 0.171183
v 0.129922 0.796725 0.171183
v 0.231470 0.796725 0.163126
v 0.130364 1.071825 0.171183
v 0.231470 1.071825 0.163126
vn 0.9522 0.3054 0.0004
vn 0.9522 0.3054 -0.0000
vn -1.0000 -0.0000 -0.0000
vn -0.9239 0.3827 -0.0000
vn -0.0000 -0.0000 -1.0000
vn 1.0000 -0.0000 -0.0000
vn 0.9470 -0.3211 -0.0000
vn 0.9470 -0.3211 0.0003
vn 1.0000 -0.0000 0.0004
vn -0.0000 -1.0000 -0.0000
vn -0.0000 -1.0000 -0.0001
vn -0.0000 -1.0000 -0.0002
vn -0.0000 -0.0000 1.0000
vn -0.7071 0.7071 -0.0000
vn -0.0000 1.0000 -0.0000
vn -0.0000 1.0000 0.0002
vn -0.0000 1.0000 0.0001
vn 0.0790 -0.0233 0.9966
vn 0.0790 -0.0000 0.9969
vn 0.1727 -0.0640 0.9829
vn -0.9465 0.3226 -0.0006
vn -0.9471 0.3211 -0.0006
vn -0.9471 0.3210 -0.0006
vn -0.9465 0.3227 -0.0006
vn 1.0000 -0.0000 0.0008
vn 0.1737 0.0605 0.9829
vn 0.2017 -0.0650 0.9773
vn -1.0000 -0.0010 -0.0008
vn -1.0000 0.0016 -0.0008
vn -1.0000 0.0004 -0.0008
vn -0.9522 -0.3054 -0.0009
vn 0.0792 -0.0000 0.9969
vn 0.0791 0.0223 0.9966
vn 0.0792 0.0303 0.9964
vn 0.2016 0.0617 0.9775
vn 0.0793 -0.0001 0.9968
vn 0.0791 -0.0324 0.9963
vn 0.0794 -0.0000 0.9968
vn -0.9518 -0.3067 -0.0009
vn -1.0000 -0.0004 -0.0008
vn -0.0000 -1.0000 -0.0004
vn -0.0000 1.0000 0.0004
vt 0.929774 0.276928
vt 0.954507 0.444562
vt 0.938695 0.438468
vt 0.950982 0.288520
vt 0.164512 0.634404
s 1
f 42/1/1 20/1/2 19/1/2 40/1/1
f 10/2/3 24/2/4 25/2/4 11/2/3
f 11/2/5 25/2/5 26/2/5 4/2/5 19/2/5
f 3/1/6 22/1/7 45/1/8 35/1/9
f 2/2/5 14/2/5 22/2/5 3/2/5
f 14/2/5 13/2/5 21/2/5 22/2/5
f 29/2/5 12/2/5 20/2/5 33/2/5
f 12/2/5 11/2/5 19/2/5 20/2/5
f 2/2/10 3/2/10 35/2/11 36/2/12 1/2/10
f 49/1/9 34/1/6 33/1/6 48/1/9
f 48/1/9 33/1/6 20/1/2 42/1/1
f 47/2/13 41/2/13 9/2/13 28/2/13
f 1/2/3 7/2/3 14/2/3 2/2/3
f 7/2/3 8/2/3 13/2/3 14/2/3
f 28/2/3 9/2/3 12/2/3 29/2/3
f 9/2/3 10/2/3 11/2/3 12/2/3
f 23/2/14 26/2/14 25/2/4 24/2/4
f 4/3/15 26/3/15 23/3/15 37/3/16 38/3/17
f 8/2/3 27/2/3 30/2/3 13/2/3
f 27/2/3 28/2/3 29/2/3 30/2/3
f 45/1/8 22/1/7 21/1/7 44/1/8
f 31/4/18 18/4/19 17/4/19 32/4/20
f 13/2/5 30/2/5 34/2/5 21/2/5
f 30/2/5 29/2/5 33/2/5 34/2/5
f 39/2/13 37/2/13 23/2/13 24/2/13 10/2/13
f 41/2/13 39/2/13 10/2/13 9/2/13
f 44/1/8 21/1/7 34/1/6 49/1/9
f 50/5/13 47/5/13 28/5/13 27/5/13
f 43/2/13 50/2/13 27/2/13 8/2/13
f 46/2/13 43/2/13 8/2/13 7/2/13
f 4/1/6 38/1/9 40/1/1 19/1/2
f 43/4/21 46/4/22 31/4/23 55/4/24
f 40/4/1 38/4/9 16/4/25 5/4/26
f 44/4/8 49/4/9 53/4/25 56/4/27
f 49/4/9 48/4/9 58/4/25 53/4/25
f 47/4/28 50/4/29 54/4/29 57/4/28
f 37/4/30 39/4/31 6/4/31 15/4/30
f 50/4/29 43/4/21 55/4/24 54/4/29
f 36/2/13 46/2/13 7/2/13 1/2/13
f 15/4/32 6/4/33 5/4/26 16/4/32
f 6/4/33 51/4/34 52/4/35 5/4/26
f 54/4/36 55/4/37 56/4/27 53/4/36
f 55/4/37 31/4/18 32/4/20 56/4/27
f 51/4/34 57/4/38 58/4/38 52/4/35
f 57/4/38 54/4/36 53/4/36 58/4/38
f 39/4/31 41/4/39 51/4/39 6/4/31
f 46/4/22 36/4/40 18/4/40 31/4/23
f 45/4/8 44/4/8 56/4/27 32/4/20
f 36/4/12 35/4/11 17/4/41 18/4/41
f 41/4/39 47/4/28 57/4/28 51/4/39
f 42/4/1 40/4/1 5/4/26 52/4/35
f 35/4/9 45/4/8 32/4/20 17/4/25
f 38/4/17 37/4/16 15/4/42 16/4/42
f 48/4/9 42/4/1 52/4/35 58/4/25
