# Blender 4.0.1
# www.blender.org
o Cube.008
v -1.183542 -0.000625 0.663476
v -1.433729 -0.000625 0.547698
v -1.271033 0.281841 0.485305
v -1.048713 0.281841 0.545456
v -1.433729 -0.000625 -0.547698
v -1.183542 -0.000625 -0.663476
v -1.048713 0.281841 -0.545456
v -1.271033 0.281841 -0.485305
v 1.433729 -0.000625 0.547698
v 1.183542 -0.000625 0.663476
v 1.048713 0.281841 0.545456
v 1.271033 0.281841 0.485305
v 1.183542 -0.000625 -0.663476
v 1.433729 -0.000625 -0.547698
v 1.271033 0.281841 -0.485305
v 1.048713 0.281841 -0.545456
v -1.183542 0.230010 0.663476
v -1.433729 0.230010 0.547698
v -1.433729 0.230010 -0.547698
v -1.183542 0.230010 -0.663476
v 1.183542 0.230010 -0.663476
v 1.433729 0.230010 -0.547698
v 1.433729 0.230010 0.547698
v 1.183542 0.230010 0.663476
v -1.011903 0.136972 0.526311
v -1.226420 0.136972 0.468271
v -1.226420 0.136972 -0.468271
v -1.011903 0.136972 -0.526311
v 1.011903 0.136972 -0.526311
v 1.226420 0.136972 -0.468271
v 1.226420 0.136972 0.468271
v 1.011903 0.136972 0.526311
vn 0.1883 -0.0000 0.9821
vn 0.1189 0.7466 0.6546
vn -0.1189 0.7466 0.6546
vn -0.1883 -0.0000 0.9821
vn 0.7451 -0.0000 -0.6669
vn 0.3843 0.8423 -0.3779
vn 0.3843 0.8423 0.3779
vn 0.7451 -0.0000 0.6669
vn 0.1241 0.1609 0.9791
vn 0.2564 0.1904 0.9476
vn 0.1214 0.1603 0.9796
vn -0.7451 -0.0000 0.6669
vn -0.3843 0.8423 0.3779
vn -0.3843 0.8423 -0.3779
vn -0.7451 -0.0000 -0.6669
vn -0.1883 -0.0000 -0.9821
vn -0.1189 0.7466 -0.6546
vn 0.1189 0.7466 -0.6546
vn 0.1883 -0.0000 -0.9821
vn -0.0000 -1.0000 -0.0000
vn -0.0567 0.9267 0.3714
vn -0.1239 0.9348 0.3328
vn -0.1239 0.9348 -0.3328
vn -0.0567 0.9267 -0.3714
vn 0.0567 0.9267 -0.3714
vn 0.1239 0.9348 -0.3328
vn 0.1239 0.9348 0.3328
vn 0.0567 0.9267 0.3714
vn -0.3035 0.9528 -0.0000
vn 0.3035 0.9528 -0.0000
vn -0.0000 1.0000 -0.0000
vn -0.9557 0.2943 -0.0000
vn 0.9557 0.2943 -0.0000
vn -0.2564 0.1904 0.9476
vn -0.1241 0.1609 0.9791
vn -0.1214 0.1603 0.9796
vn 0.2564 0.1904 -0.9476
vn 0.1241 0.1609 -0.9791
vn 0.1214 0.1603 -0.9796
vn -0.1241 0.1609 -0.9791
vn -0.1214 0.1603 -0.9796
vn -0.2564 0.1904 -0.9476
vt 0.955871 0.602443
vt 0.940096 0.137774
vt 0.933326 0.621069
vt 0.528277 0.129442
s 1
f 10/1/1 24/1/2 17/1/3 1/1/4
f 14/1/5 22/1/6 23/1/7 9/1/8
f 7/2/9 8/2/10 27/2/10 28/2/11
f 2/1/12 18/1/13 19/1/14 5/1/15
f 6/3/16 20/3/17 21/3/18 13/3/19
f 1/2/4 17/2/3 18/2/13 2/2/12
f 20/2/17 6/2/16 5/2/15 19/2/14
f 22/2/6 14/2/5 13/2/19 21/2/18
f 24/2/2 10/2/1 9/2/8 23/2/7
f 5/1/20 6/1/20 13/1/20 14/1/20 9/1/20 10/1/20 1/1/20 2/1/20
f 4/2/21 3/2/22 18/2/13 17/2/3
f 8/2/23 7/2/24 20/2/17 19/2/14
f 16/2/25 15/2/26 22/2/6 21/2/18
f 12/2/27 11/2/28 24/2/2 23/2/7
f 3/1/29 8/1/29 19/1/14 18/1/13
f 11/1/28 4/1/21 17/1/3 24/1/2
f 15/1/30 12/1/30 23/1/7 22/1/6
f 7/1/24 16/1/25 21/1/18 20/1/17
f 30/4/31 29/4/31 28/4/31 27/4/31 26/4/31 25/4/31 32/4/31 31/4/31
f 12/1/32 15/1/32 30/1/32 31/1/32
f 8/1/33 3/1/33 26/1/33 27/1/33
f 15/2/34 16/2/35 29/2/36 30/2/34
f 3/2/37 4/2/38 25/2/39 26/2/37
f 16/1/35 7/1/9 28/1/11 29/1/36
f 4/1/38 11/1/40 32/1/41 25/1/39
f 11/2/40 12/2/42 31/2/42 32/2/41
