# Blender 4.0.1
# www.blender.org
o sprinkler
v 0.018241 0.323546 -0.018702
v 0.078558 0.323546 -0.018702
v 0.018241 0.307349 -0.009351
v 0.078558 0.307349 -0.009351
v 0.018241 0.307349 0.009351
v 0.078558 0.307349 0.009351
v 0.018241 0.323546 0.018702
v 0.078558 0.323546 0.018702
v 0.018241 0.339742 0.009351
v 0.078558 0.339742 0.009351
v 0.018241 0.339742 -0.009351
v 0.078558 0.339742 -0.009351
v -0.081934 0.323545 -0.018702
v -0.021618 0.323546 -0.018702
v -0.081934 0.307349 -0.009351
v -0.021618 0.307349 -0.009351
v -0.081934 0.307349 0.009351
v -0.021618 0.307349 0.009351
v -0.081934 0.323545 0.018702
v -0.021618 0.323546 0.018702
v -0.081934 0.339742 0.009351
v -0.021618 0.339742 0.009351
v -0.081934 0.339742 -0.009351
v -0.021618 0.339742 -0.009351
v 0.000422 0.000074 -0.033136
v 0.023852 0.000074 -0.023430
v 0.033558 0.000074 0.000000
v 0.023852 0.000074 0.023430
v 0.000422 0.000074 0.033136
v -0.023008 0.000074 0.023430
v -0.032714 0.000074 0.000000
v -0.023008 0.000074 -0.023430
v 0.000422 0.124221 -0.033136
v 0.000422 0.194676 -0.039998
v 0.028705 0.194676 -0.028283
v 0.023852 0.124221 -0.023430
v 0.040420 0.194676 0.000000
v 0.033558 0.124221 0.000000
v 0.028705 0.194676 0.028283
v 0.023852 0.124221 0.023430
v 0.000422 0.194676 0.039998
v 0.000422 0.124221 0.033136
v -0.027861 0.194676 0.028283
v -0.023008 0.124221 0.023430
v -0.039576 0.194676 0.000000
v -0.032714 0.124221 0.000000
v -0.027861 0.194676 -0.028283
v -0.023008 0.124221 -0.023430
v 0.000422 0.124221 -0.057857
v 0.000422 0.180982 -0.057857
v 0.041333 0.180982 -0.040911
v 0.041333 0.124221 -0.040911
v 0.058279 0.180982 0.000000
v 0.058279 0.124221 0.000000
v 0.041333 0.180982 0.040911
v 0.041333 0.124221 0.040911
v 0.000422 0.180982 0.057857
v 0.000422 0.124221 0.057857
v -0.040489 0.180982 0.040911
v -0.040489 0.124221 0.040911
v -0.057435 0.180982 0.000000
v -0.057435 0.124221 0.000000
v -0.040489 0.180982 -0.040911
v -0.040489 0.124221 -0.040911
v 0.000422 0.233367 -0.039998
v 0.028705 0.233367 -0.028283
v 0.040420 0.233367 0.000000
v 0.028705 0.233367 0.028283
v 0.000422 0.233367 0.039998
v -0.027861 0.233367 0.028283
v -0.039576 0.233367 0.000000
v -0.027861 0.233367 -0.028283
v 0.000422 0.233367 -0.030514
v 0.021998 0.233367 -0.021576
v 0.030936 0.233367 0.000000
v 0.021998 0.233367 0.021576
v 0.000422 0.233367 0.030514
v -0.021154 0.233367 0.021576
v -0.030091 0.233367 0.000000
v -0.021154 0.233367 -0.021576
v 0.000422 0.283670 -0.030514
v 0.021998 0.283670 -0.021576
v 0.030936 0.283670 0.000000
v 0.021998 0.283670 0.021576
v 0.000422 0.283670 0.030514
v -0.021154 0.283670 0.021576
v -0.030091 0.283670 0.000000
v -0.021154 0.283670 -0.021576
v 0.017894 0.350575 -0.017472
v 0.000422 0.350575 -0.024709
v 0.000422 0.288064 -0.039891
v 0.025131 0.350575 0.000000
v 0.017894 0.350575 0.017472
v 0.000422 0.350575 0.024709
v -0.017050 0.350575 0.017472
v -0.024287 0.350575 0.000000
v -0.017050 0.350575 -0.017472
v 0.028630 0.288064 -0.028208
v 0.040314 0.288064 0.000000
v 0.028630 0.288064 0.028208
v 0.000422 0.288064 0.039891
v -0.027785 0.288064 0.028208
v -0.039469 0.288064 0.000000
v -0.027785 0.288064 -0.028208
v 0.028630 0.356677 -0.028208
v 0.000422 0.356677 -0.039891
v 0.040314 0.356677 0.000000
v 0.028630 0.356677 0.028208
v 0.000422 0.356677 0.039891
v -0.027785 0.356677 0.028208
v -0.039469 0.356677 0.000000
v -0.027785 0.356677 -0.028208
v 0.022560 0.362210 -0.022137
v 0.000422 0.362210 -0.031307
v 0.031729 0.362210 0.000000
v 0.022560 0.362210 0.022137
v 0.000422 0.362210 0.031307
v -0.021715 0.362210 0.022137
v -0.030885 0.362210 0.000000
v -0.021715 0.362210 -0.022137
vn -0.0000 -0.5000 -0.8660
vn -0.0000 -1.0000 -0.0000
vn -0.0000 -0.5000 0.8660
vn -0.0000 0.5000 0.8660
vn 1.0000 -0.0000 -0.0000
vn -0.0000 1.0000 -0.0000
vn -0.0000 0.5000 -0.8660
vn -1.0000 -0.0000 -0.0000
vn -0.6584 -0.0000 -0.7527
vn -0.3827 -0.0000 -0.9239
vn -0.0000 0.7936 0.6085
vn -0.5939 0.5089 0.6231
vn -0.5756 0.4444 0.6865
vn -0.6584 -0.0000 0.7527
vn -0.3827 -0.0000 0.9239
vn 0.5939 0.5089 -0.6231
vn 0.8555 0.5178 -0.0000
vn 0.8796 0.4757 -0.0000
vn 0.5756 0.4444 -0.6865
vn 0.6584 -0.0000 0.7527
vn 0.3827 -0.0000 0.9239
vn -0.8555 0.5178 -0.0000
vn -0.8796 0.4757 -0.0000
vn 0.6584 -0.0000 -0.7527
vn 0.3827 -0.0000 -0.9239
vn 0.5939 0.5089 0.6231
vn 0.5756 0.4444 0.6865
vn -0.5756 0.4444 -0.6865
vn -0.0000 0.7936 -0.6085
vn -0.5939 0.5089 -0.6231
vn 0.4243 -0.9055 -0.0000
vn 0.3163 -0.9053 -0.2836
vn 0.2606 -0.9041 -0.3385
vn -0.3163 -0.9053 -0.2836
vn -0.4243 -0.9055 -0.0000
vn -0.2606 -0.9041 -0.3385
vn -0.3163 -0.9053 0.2836
vn -0.0000 -0.9055 0.4243
vn -0.2606 -0.9041 0.3385
vn 0.3163 -0.9053 0.2836
vn 0.2606 -0.9041 0.3385
vn -0.0000 -0.9055 -0.4243
vn 0.5626 0.4832 -0.6708
vn 0.8531 0.5218 -0.0000
vn 0.5626 0.4832 0.6708
vn -0.5626 0.4832 0.6708
vn -0.8531 0.5218 -0.0000
vn -0.5626 0.4832 -0.6708
vn -0.0000 0.8405 -0.5418
vn 0.3975 0.8403 -0.3685
vn 0.5418 0.8405 -0.0000
vn 0.3975 0.8403 0.3685
vn -0.0000 0.8405 0.5418
vn -0.3975 0.8403 0.3685
vn -0.5418 0.8405 -0.0000
vn -0.3975 0.8403 -0.3685
vn -0.3390 0.4641 0.8184
vn -0.6028 0.4932 0.6272
vn -0.5504 0.4914 0.6749
vn -0.8699 0.4933 -0.0000
vn -0.6028 0.4932 -0.6272
vn -0.5504 0.4914 -0.6749
vn -0.3390 0.4641 -0.8184
vn 0.3390 0.4641 -0.8184
vn 0.6028 0.4932 -0.6272
vn 0.5504 0.4914 -0.6749
vn 0.8699 0.4933 -0.0000
vn 0.6028 0.4932 0.6272
vn 0.5504 0.4914 0.6749
vn 0.3390 0.4641 0.8184
vt 0.925406 0.621413
vt 0.964220 0.624274
vt 0.941268 0.622520
vt 0.914491 0.622520
vt 0.979818 0.609165
vt 0.982489 0.622520
vt 0.246076 0.377152
vt 0.948490 0.616756
s 1
f 1/1/1 2/1/1 4/1/1 3/1/1
f 3/1/2 4/1/2 6/1/2 5/1/2
f 5/2/3 6/2/3 8/2/3 7/2/3
f 7/1/4 8/1/4 10/1/4 9/1/4
f 4/1/5 2/1/5 12/1/5 10/1/5 8/1/5 6/1/5
f 9/1/6 10/1/6 12/1/6 11/1/6
f 11/1/7 12/1/7 2/1/7 1/1/7
f 1/3/8 3/3/8 5/3/8 7/3/8 9/3/8 11/3/8
f 13/1/1 14/1/1 16/1/1 15/1/1
f 15/1/2 16/1/2 18/1/2 17/1/2
f 17/1/3 18/1/3 20/1/3 19/1/3
f 19/1/4 20/1/4 22/1/4 21/1/4
f 16/4/5 14/4/5 24/4/5 22/4/5 20/4/5 18/4/5
f 21/1/6 22/1/6 24/1/6 23/1/6
f 23/1/7 24/1/7 14/1/7 13/1/7
f 13/1/8 15/1/8 17/1/8 19/1/8 21/1/8 23/1/8
f 66/5/6 65/5/6 73/5/6 74/5/6
f 65/5/6 72/5/6 80/5/6 73/5/6
f 71/5/6 70/5/6 78/5/6 79/5/6
f 69/5/6 68/5/6 76/5/6 77/5/6
f 67/5/6 66/5/6 74/5/6 75/5/6
f 72/5/6 71/5/6 79/5/6 80/5/6
f 70/5/6 69/5/6 77/5/6 78/5/6
f 68/5/6 67/5/6 75/5/6 76/5/6
f 25/6/2 26/6/2 27/6/2 28/6/2 29/6/2 30/6/2 31/6/2 32/6/2
f 32/7/9 48/7/9 33/7/10 25/7/10
f 41/5/11 43/5/12 59/5/13 57/5/11
f 31/7/8 46/7/8 48/7/9 32/7/9
f 36/5/2 33/5/2 49/5/2 52/5/2
f 30/7/14 44/7/14 46/7/8 31/7/8
f 44/5/2 42/5/2 58/5/2 60/5/2
f 29/7/15 42/7/15 44/7/14 30/7/14
f 35/5/16 37/5/17 53/5/18 51/5/19
f 28/7/20 40/7/20 42/7/21 29/7/21
f 43/5/12 45/5/22 61/5/23 59/5/13
f 27/7/5 38/7/5 40/7/20 28/7/20
f 38/5/2 36/5/2 52/5/2 54/5/2
f 26/7/24 36/7/24 38/7/5 27/7/5
f 46/5/2 44/5/2 60/5/2 62/5/2
f 25/7/25 33/7/25 36/7/24 26/7/24
f 37/5/17 39/5/26 55/5/27 53/5/18
f 64/5/9 63/5/28 50/5/10 49/5/10
f 62/5/8 61/5/23 63/5/28 64/5/9
f 60/5/14 59/5/13 61/5/23 62/5/8
f 58/5/15 57/5/15 59/5/13 60/5/14
f 56/5/20 55/5/27 57/5/21 58/5/21
f 54/5/5 53/5/18 55/5/27 56/5/20
f 52/5/24 51/5/19 53/5/18 54/5/5
f 49/5/25 50/5/25 51/5/19 52/5/24
f 33/5/2 48/5/2 64/5/2 49/5/2
f 34/5/29 35/5/16 51/5/19 50/5/29
f 42/5/2 40/5/2 56/5/2 58/5/2
f 47/5/30 34/5/29 50/5/29 63/5/28
f 39/5/26 41/5/11 57/5/11 55/5/27
f 48/5/2 46/5/2 62/5/2 64/5/2
f 40/5/2 38/5/2 54/5/2 56/5/2
f 45/5/22 47/5/30 63/5/28 61/5/23
f 47/5/30 72/5/9 65/5/10 34/5/10
f 45/5/22 71/5/8 72/5/9 47/5/30
f 43/5/12 70/5/14 71/5/8 45/5/22
f 41/5/15 69/5/15 70/5/14 43/5/12
f 39/5/26 68/5/20 69/5/21 41/5/21
f 37/5/17 67/5/5 68/5/20 39/5/26
f 35/5/16 66/5/24 67/5/5 37/5/17
f 34/5/25 65/5/25 66/5/24 35/5/16
f 83/8/31 82/8/32 98/8/33 99/8/31
f 88/8/34 87/8/35 103/8/35 104/8/36
f 86/8/37 85/8/38 101/8/38 102/8/39
f 84/8/40 83/8/31 99/8/31 100/8/41
f 82/8/32 81/8/42 91/8/42 98/8/33
f 81/8/42 88/8/34 104/8/36 91/8/42
f 87/8/35 86/8/37 102/8/39 103/8/35
f 85/8/38 84/8/40 100/8/41 101/8/38
f 80/7/9 88/7/9 81/7/10 73/7/10
f 79/7/8 87/7/8 88/7/9 80/7/9
f 78/7/14 86/7/14 87/7/8 79/7/8
f 77/7/15 85/7/15 86/7/14 78/7/14
f 76/7/20 84/7/20 85/7/21 77/7/21
f 75/7/5 83/7/5 84/7/20 76/7/20
f 74/7/24 82/7/24 83/7/5 75/7/5
f 73/7/25 81/7/25 82/7/24 74/7/24
f 91/8/25 106/8/25 105/8/43 98/8/24
f 98/8/24 105/8/43 107/8/44 99/8/5
f 99/8/5 107/8/44 108/8/45 100/8/20
f 100/8/20 108/8/45 109/8/21 101/8/21
f 101/8/15 109/8/15 110/8/46 102/8/14
f 102/8/14 110/8/46 111/8/47 103/8/8
f 89/8/6 90/8/6 97/8/6 96/8/6 95/8/6 94/8/6 93/8/6 92/8/6
f 103/8/8 111/8/47 112/8/48 104/8/9
f 104/8/9 112/8/48 106/8/10 91/8/10
f 114/8/49 113/8/50 105/8/43 106/8/49
f 113/8/50 115/8/51 107/8/44 105/8/43
f 115/8/51 116/8/52 108/8/45 107/8/44
f 116/8/52 117/8/53 109/8/53 108/8/45
f 117/8/53 118/8/54 110/8/46 109/8/53
f 118/8/54 119/8/55 111/8/47 110/8/46
f 119/8/55 120/8/56 112/8/48 111/8/47
f 120/8/56 114/8/49 106/8/49 112/8/48
f 90/8/57 89/8/58 113/8/59 114/8/57
f 89/8/58 92/8/60 115/8/60 113/8/59
f 92/8/60 93/8/61 116/8/62 115/8/60
f 93/8/61 94/8/63 117/8/63 116/8/62
f 94/8/64 95/8/65 118/8/66 117/8/64
f 95/8/65 96/8/67 119/8/67 118/8/66
f 96/8/67 97/8/68 120/8/69 119/8/67
f 97/8/68 90/8/70 114/8/70 120/8/69
