# Blender 4.0.1
# www.blender.org
o Cylinder.005
v 0.029897 0.498573 -0.003527
v 0.085551 0.517807 0.000319
v 0.031731 0.492520 0.000125
v 0.086419 0.514941 0.002047
v 0.031731 0.492520 0.007428
v 0.086419 0.514941 0.005505
v 0.029897 0.498573 0.011079
v 0.085551 0.517807 0.007234
v 0.028063 0.504626 0.007428
v 0.084682 0.520673 0.005505
v 0.028063 0.504626 0.000125
v 0.084682 0.520673 0.002047
v 0.000000 0.139544 -0.057526
v 0.011815 0.716938 -0.006538
v 0.022014 0.139544 -0.053147
v 0.014488 0.367150 -0.031480
v 0.040677 0.139544 -0.040677
v 0.002619 0.367150 -0.023550
v 0.053147 0.139544 -0.022014
v -0.005311 0.367150 -0.011681
v 0.057526 0.139544 -0.000000
v -0.008096 0.367150 0.002319
v 0.053147 0.139544 0.022014
v -0.005311 0.367150 0.016319
v 0.040677 0.139544 0.040677
v 0.002619 0.367150 0.028188
v 0.022014 0.139544 0.053147
v 0.014488 0.367150 0.036119
v -0.000000 0.139544 0.057526
v 0.028488 0.367150 0.038903
v -0.022014 0.139544 0.053147
v 0.042489 0.367150 0.036119
v -0.040677 0.139544 0.040677
v 0.054357 0.367150 0.028188
v -0.053147 0.139544 0.022014
v 0.062288 0.367150 0.016319
v -0.057526 0.139544 0.000000
v 0.065073 0.367150 0.002319
v -0.053147 0.139544 -0.022014
v 0.062288 0.367150 -0.011681
v -0.040677 0.139544 -0.040677
v 0.054357 0.367150 -0.023550
v -0.022014 0.139544 -0.053147
v 0.042489 0.367150 -0.031480
v -0.006935 0.615086 -0.013430
v -0.000809 0.615086 -0.012212
v 0.004384 0.615086 -0.008742
v 0.007854 0.615086 -0.003549
v 0.009072 0.615086 0.002577
v 0.007854 0.615086 0.008703
v 0.004384 0.615086 0.013896
v -0.000809 0.615086 0.017366
v -0.006935 0.615086 0.018584
v -0.013061 0.615086 0.017366
v -0.018254 0.615086 0.013896
v -0.021724 0.615086 0.008703
v -0.022942 0.615086 0.002577
v -0.021724 0.615086 -0.003549
v -0.018254 0.615086 -0.008742
v -0.013061 0.615086 -0.012212
v 0.028488 0.367150 -0.034265
v 0.000200 0.243150 -0.031468
v 0.015745 0.243150 -0.021081
v 0.026131 0.243150 -0.005537
v 0.029779 0.243150 0.012800
v 0.026131 0.243150 0.031136
v 0.015745 0.243150 0.046680
v 0.000200 0.243150 0.057067
v -0.018136 0.243150 0.060714
v -0.036472 0.243150 0.057067
v -0.052017 0.243150 0.046680
v -0.062404 0.243150 0.031136
v -0.066051 0.243150 0.012800
v -0.062404 0.243150 -0.005537
v -0.052017 0.243150 -0.021081
v -0.036472 0.243150 -0.031468
v -0.018136 0.243150 -0.035115
v 0.087815 0.560773 0.002086
v 0.164739 0.559070 0.010708
v 0.088147 0.560381 -0.005657
v 0.165070 0.558679 0.002965
v 0.111940 0.480490 0.007179
v 0.175836 0.522141 0.013051
v 0.112271 0.480098 -0.000564
v 0.176167 0.521749 0.005308
v 0.126066 0.569326 0.004178
v 0.126397 0.568935 -0.003565
v 0.148865 0.494166 0.001178
v 0.148534 0.494558 0.008922
v 0.059860 0.535449 0.007416
v 0.060192 0.535058 -0.000328
v 0.074688 0.486105 0.010546
v 0.075019 0.485714 0.002802
v 0.186467 0.550819 0.018888
v 0.186799 0.550427 0.011144
v 0.189238 0.541597 0.019473
v 0.189570 0.541206 0.011729
vn 0.2170 -0.4552 -0.8635
vn 0.3793 -0.9253 -0.0000
vn 0.2170 -0.4552 0.8635
vn -0.1092 0.4890 0.8654
vn 0.9570 0.2900 -0.0000
vn -0.2727 0.9621 -0.0000
vn -0.1092 0.4890 -0.8654
vn -0.9570 -0.2900 -0.0000
vn -0.0200 0.0764 -0.9969
vn 0.1765 0.9806 -0.0857
vn 0.3663 0.0715 -0.9277
vn 0.6977 0.0738 -0.7125
vn 0.9196 0.0836 -0.3838
vn 0.9950 0.0995 0.0056
vn 0.9124 0.1187 0.3918
vn 0.6877 0.1375 0.7129
vn 0.3597 0.1521 0.9206
vn -0.0191 0.1600 0.9869
vn -0.3921 0.1605 0.9058
vn -0.7055 0.1548 0.6916
vn -0.9152 0.1446 0.3761
vn -0.9913 0.1314 0.0048
vn -0.9220 0.1166 -0.3692
vn -0.7155 0.1013 -0.6912
vn -0.0329 0.1175 -0.9925
vn 0.0310 0.0379 -0.9988
vn 0.4068 -0.0007 -0.9135
vn 0.3571 0.0757 -0.9310
vn -0.3998 0.0871 -0.9125
vn -0.0000 -1.0000 -0.0000
vn -0.3525 0.0856 -0.9319
vn -0.6824 0.1326 -0.7189
vn -0.9040 0.1700 -0.3924
vn -0.9812 0.1931 -0.0050
vn -0.9024 0.2001 0.3816
vn -0.6811 0.1902 0.7070
vn -0.3526 0.1629 0.9215
vn 0.0313 0.1211 0.9922
vn 0.4098 0.0725 0.9093
vn 0.7244 0.0275 0.6889
vn 0.9299 -0.0067 0.3679
vn 0.9996 -0.0271 -0.0048
vn 0.9260 -0.0334 -0.3761
vn 0.7193 -0.0248 -0.6943
vn 0.6959 0.0361 -0.7173
vn 0.9234 0.0065 -0.3838
vn 0.9999 -0.0086 0.0130
vn 0.9140 -0.0071 0.4057
vn 0.6834 0.0109 0.7300
vn 0.3496 0.0413 0.9360
vn -0.0317 0.0764 0.9966
vn -0.4021 0.1089 0.9091
vn -0.7094 0.1358 0.6916
vn -0.9126 0.1564 0.3778
vn -0.9853 0.1707 0.0119
vn -0.9177 0.1769 -0.3558
vn -0.7176 0.1717 -0.6749
vn -0.4095 0.1518 -0.8996
vn -0.3560 0.1435 -0.9234
vn 0.0198 0.2147 -0.9765
vn -0.6875 0.0616 -0.7236
vn -0.9150 -0.0176 -0.4032
vn -0.9967 -0.0801 -0.0154
vn -0.9200 -0.1152 0.3747
vn -0.6990 -0.1174 0.7054
vn -0.3680 -0.0864 0.9258
vn 0.0216 -0.0270 0.9994
vn 0.4054 0.0508 0.9127
vn 0.7181 0.1332 0.6830
vn 0.9117 0.2064 0.3554
vn 0.9654 0.2602 -0.0136
vn 0.8825 0.2891 -0.3710
vn 0.6793 0.2909 -0.6737
vn 0.3805 0.2655 -0.8858
vn 0.0342 0.9982 -0.0490
vn 0.3201 0.9468 -0.0342
vn 0.3073 0.9510 -0.0349
vn 0.0139 0.9987 -0.0499
vn 0.1022 -0.0324 -0.9942
vn 0.2272 0.0065 -0.9738
vn 0.2290 0.0071 -0.9734
vn 0.1037 -0.0319 -0.9941
vn 0.5338 -0.8430 0.0655
vn 0.7535 -0.6542 0.0653
vn 0.7670 -0.6383 0.0651
vn 0.5491 -0.8332 0.0656
vn -0.1037 0.0319 0.9941
vn -0.2290 -0.0071 0.9734
vn -0.2272 -0.0065 0.9738
vn -0.1022 0.0324 0.9942
vn 0.0082 0.0658 0.9978
vn 0.0077 0.0656 0.9978
vn 0.1037 0.0940 0.9902
vn -0.3691 -0.0520 0.9279
vn 0.1188 -0.9914 0.0552
vn 0.0997 -0.9935 0.0545
vn -0.0077 -0.0656 -0.9978
vn -0.0082 -0.0658 -0.9978
vn -0.4701 0.8802 -0.0646
vn -0.4525 0.8894 -0.0643
vn -0.9569 -0.2892 -0.0263
vn -0.1037 -0.0940 -0.9902
vn -0.6768 0.7332 -0.0660
vn -0.1450 -0.9885 0.0438
vn 0.9569 0.2892 0.0263
vn 0.3691 0.0520 -0.9279
vn 0.8118 -0.5804 0.0641
vn 0.3652 0.9304 -0.0314
vt 0.372062 0.453703
vt 0.339033 0.431371
vt 0.337800 0.474128
s 1
f 1/1/1 2/1/1 4/1/1 3/1/1
f 3/1/2 4/1/2 6/1/2 5/1/2
f 5/1/3 6/1/3 8/1/3 7/1/3
f 7/1/4 8/1/4 10/1/4 9/1/4
f 4/1/5 2/1/5 12/1/5 10/1/5 8/1/5 6/1/5
f 9/1/6 10/1/6 12/1/6 11/1/6
f 11/1/7 12/1/7 2/1/7 1/1/7
f 1/1/8 3/1/8 5/1/8 7/1/8 9/1/8 11/1/8
f 45/2/9 14/2/10 46/2/11
f 46/2/11 14/2/10 47/2/12
f 47/2/12 14/2/10 48/2/13
f 48/2/13 14/2/10 49/2/14
f 49/2/14 14/2/10 50/2/15
f 50/2/15 14/2/10 51/2/16
f 51/2/16 14/2/10 52/2/17
f 52/2/17 14/2/10 53/2/18
f 53/2/18 14/2/10 54/2/19
f 54/2/19 14/2/10 55/2/20
f 55/2/20 14/2/10 56/2/21
f 56/2/21 14/2/10 57/2/22
f 57/2/22 14/2/10 58/2/23
f 58/2/23 14/2/10 59/2/24
f 77/2/25 61/2/26 44/2/27 62/2/28
f 59/2/24 14/2/10 60/2/29
f 60/2/29 14/2/10 45/2/9
f 13/2/30 15/2/30 17/2/30 19/2/30 21/2/30 23/2/30 25/2/30 27/2/30 29/2/30 31/2/30 33/2/30 35/2/30 37/2/30 39/2/30 41/2/30 43/2/30
f 16/2/31 60/2/29 45/2/9 61/2/26
f 18/2/32 59/2/24 60/2/29 16/2/31
f 20/2/33 58/2/23 59/2/24 18/2/32
f 22/2/34 57/2/22 58/2/23 20/2/33
f 24/2/35 56/2/21 57/2/22 22/2/34
f 26/2/36 55/2/20 56/2/21 24/2/35
f 28/2/37 54/2/19 55/2/20 26/2/36
f 30/2/38 53/2/18 54/2/19 28/2/37
f 32/2/39 52/2/17 53/2/18 30/2/38
f 34/2/40 51/2/16 52/2/17 32/2/39
f 36/2/41 50/2/15 51/2/16 34/2/40
f 38/2/42 49/2/14 50/2/15 36/2/41
f 40/2/43 48/2/13 49/2/14 38/2/42
f 42/2/44 47/2/12 48/2/13 40/2/43
f 44/2/27 46/2/11 47/2/12 42/2/44
f 61/2/26 45/2/9 46/2/11 44/2/27
f 62/2/28 44/2/27 42/2/44 63/2/45
f 63/2/45 42/2/44 40/2/43 64/2/46
f 64/2/46 40/2/43 38/2/42 65/2/47
f 65/2/47 38/2/42 36/2/41 66/2/48
f 66/2/48 36/2/41 34/2/40 67/2/49
f 67/2/49 34/2/40 32/2/39 68/2/50
f 68/2/50 32/2/39 30/2/38 69/2/51
f 69/2/51 30/2/38 28/2/37 70/2/52
f 70/2/52 28/2/37 26/2/36 71/2/53
f 71/2/53 26/2/36 24/2/35 72/2/54
f 72/2/54 24/2/35 22/2/34 73/2/55
f 73/2/55 22/2/34 20/2/33 74/2/56
f 74/2/56 20/2/33 18/2/32 75/2/57
f 75/2/57 18/2/32 16/2/31 76/2/58
f 76/2/58 16/2/31 61/2/26 77/2/25
f 43/2/59 76/2/58 77/2/25 13/2/60
f 41/2/61 75/2/57 76/2/58 43/2/59
f 39/2/62 74/2/56 75/2/57 41/2/61
f 37/2/63 73/2/55 74/2/56 39/2/62
f 35/2/64 72/2/54 73/2/55 37/2/63
f 33/2/65 71/2/53 72/2/54 35/2/64
f 31/2/66 70/2/52 71/2/53 33/2/65
f 29/2/67 69/2/51 70/2/52 31/2/66
f 27/2/68 68/2/50 69/2/51 29/2/67
f 25/2/69 67/2/49 68/2/50 27/2/68
f 23/2/70 66/2/48 67/2/49 25/2/69
f 21/2/71 65/2/47 66/2/48 23/2/70
f 19/2/72 64/2/46 65/2/47 21/2/71
f 17/2/73 63/2/45 64/2/46 19/2/72
f 15/2/74 62/2/28 63/2/45 17/2/73
f 13/2/60 77/2/25 62/2/28 15/2/74
f 86/3/75 79/3/76 81/3/77 87/3/78
f 87/3/79 81/3/80 85/3/81 88/3/82
f 88/3/83 85/3/84 83/3/85 89/3/86
f 89/3/87 83/3/88 79/3/89 86/3/90
f 82/3/91 78/3/92 90/3/93 92/3/93
f 79/3/89 83/3/88 96/3/94 94/3/94
f 82/3/91 89/3/87 86/3/90 78/3/92
f 84/3/95 88/3/83 89/3/86 82/3/96
f 80/3/97 87/3/79 88/3/82 84/3/98
f 78/3/99 86/3/75 87/3/78 80/3/100
f 91/3/101 93/3/101 92/3/101 90/3/101
f 80/3/97 84/3/98 93/3/102 91/3/102
f 78/3/99 80/3/100 91/3/103 90/3/103
f 84/3/95 82/3/96 92/3/104 93/3/104
f 97/3/105 95/3/105 94/3/105 96/3/105
f 85/3/81 81/3/80 95/3/106 97/3/106
f 83/3/85 85/3/84 97/3/107 96/3/107
f 81/3/77 79/3/76 94/3/108 95/3/108
