# Blender 4.0.1
# www.blender.org
mtllib Pistão.mtl
o Cube.001
v 0.437353 -0.154722 0.411056
v 0.408317 -0.154722 0.440092
v 0.408317 -0.154723 -0.420920
v 0.437353 -0.154723 -0.391884
v -0.394623 -0.154722 0.440092
v -0.423658 -0.154722 0.411056
v -0.423658 -0.154723 -0.391884
v -0.394623 -0.154723 -0.420920
v 0.408317 0.154723 0.440091
v 0.437353 0.154723 0.411056
v 0.437353 0.154722 -0.391884
v 0.408317 0.154722 -0.420920
v -0.394623 0.154722 -0.420920
v -0.423659 0.154722 -0.391884
v -0.423659 0.154723 0.411056
v -0.394623 0.154723 0.440091
vn -0.0000 -0.0000 -1.0000
vn -0.0000 -0.0000 1.0000
vn -0.7071 -0.0000 0.7071
vn 0.7071 -0.0000 -0.7071
vn -1.0000 -0.0000 -0.0000
vn 1.0000 -0.0000 -0.0000
vn -0.7071 -0.0000 -0.7071
vn 0.7071 -0.0000 0.7071
vn -0.0000 1.0000 -0.0000
vn -0.0000 -1.0000 -0.0000
vt 0.972516 0.440945
s 1
usemtl Paleta
f 8/1/1 13/1/1 12/1/1 3/1/1
f 2/1/2 9/1/2 16/1/2 5/1/2
f 5/1/3 16/1/3 15/1/3 6/1/3
f 3/1/4 12/1/4 11/1/4 4/1/4
f 6/1/5 15/1/5 14/1/5 7/1/5
f 4/1/6 11/1/6 10/1/6 1/1/6
f 7/1/7 14/1/7 13/1/7 8/1/7
f 1/1/8 10/1/8 9/1/8 2/1/8
f 13/1/9 14/1/9 15/1/9 16/1/9 9/1/9 10/1/9 11/1/9 12/1/9
f 5/1/10 6/1/10 7/1/10 8/1/10 3/1/10 4/1/10 1/1/10 2/1/10
