# Blender 4.0.1
# www.blender.org
o botao
v 0.000000 0.109039 -0.203763
v 0.052738 0.109039 -0.196820
v 0.101882 0.109039 -0.176464
v 0.144082 0.109039 -0.144082
v 0.176464 0.109039 -0.101882
v 0.196820 0.109039 -0.052738
v 0.203763 0.109039 0.000000
v 0.196820 0.109039 0.052738
v 0.176464 0.109039 0.101882
v 0.144082 0.109039 0.144082
v 0.101882 0.109039 0.176464
v 0.052738 0.109039 0.196820
v 0.000000 0.109039 0.203763
v -0.052738 0.109039 0.196820
v -0.101882 0.109039 0.176464
v -0.144082 0.109039 0.144082
v -0.176464 0.109039 0.101882
v -0.196820 0.109039 0.052738
v -0.203763 0.109039 0.000000
v -0.196820 0.109039 -0.052738
v -0.176464 0.109039 -0.101882
v -0.144082 0.109039 -0.144082
v -0.101882 0.109039 -0.176464
v -0.052738 0.109039 -0.196820
v 0.048381 0.159582 -0.180562
v 0.000000 0.159582 -0.186931
v 0.093466 0.159582 -0.161887
v 0.132180 0.159582 -0.132180
v 0.161887 0.159582 -0.093466
v 0.180562 0.159582 -0.048381
v 0.186931 0.159582 -0.000000
v 0.180562 0.159582 0.048381
v 0.161887 0.159582 0.093466
v 0.132180 0.159582 0.132180
v 0.093466 0.159582 0.161887
v 0.048381 0.159582 0.180562
v 0.000000 0.159582 0.186931
v -0.048381 0.159582 0.180562
v -0.093466 0.159582 0.161887
v -0.132180 0.159582 0.132180
v -0.161887 0.159582 0.093466
v -0.180562 0.159582 0.048381
v -0.186931 0.159582 -0.000000
v -0.180562 0.159582 -0.048381
v -0.161887 0.159582 -0.093466
v -0.132180 0.159582 -0.132180
v -0.093466 0.159582 -0.161887
v -0.048381 0.159582 -0.180562
v 0.051005 0.151767 -0.190352
v 0.052738 0.138193 -0.196820
v 0.000000 0.138193 -0.203763
v 0.000000 0.151767 -0.197067
v 0.098533 0.151767 -0.170665
v 0.101882 0.138193 -0.176464
v 0.139347 0.151767 -0.139347
v 0.144082 0.138193 -0.144082
v 0.170665 0.151767 -0.098533
v 0.176464 0.138193 -0.101882
v 0.190352 0.151767 -0.051005
v 0.196820 0.138193 -0.052738
v 0.197067 0.151767 -0.000000
v 0.203763 0.138193 0.000000
v 0.190352 0.151767 0.051005
v 0.196820 0.138193 0.052738
v 0.170665 0.151767 0.098533
v 0.176464 0.138193 0.101882
v 0.139347 0.151767 0.139347
v 0.144082 0.138193 0.144082
v 0.098533 0.151767 0.170665
v 0.101882 0.138193 0.176464
v 0.051005 0.151767 0.190352
v 0.052738 0.138193 0.196820
v 0.000000 0.151767 0.197067
v 0.000000 0.138193 0.203763
v -0.051005 0.151767 0.190352
v -0.052738 0.138193 0.196820
v -0.098533 0.151767 0.170665
v -0.101882 0.138193 0.176464
v -0.139347 0.151767 0.139347
v -0.144082 0.138193 0.144082
v -0.170665 0.151767 0.098533
v -0.176464 0.138193 0.101882
v -0.190352 0.151767 0.051005
v -0.196820 0.138193 0.052738
v -0.197067 0.151767 -0.000000
v -0.203763 0.138193 0.000000
v -0.190352 0.151767 -0.051005
v -0.196820 0.138193 -0.052738
v -0.170665 0.151767 -0.098533
v -0.176464 0.138193 -0.101882
v -0.139347 0.151767 -0.139347
v -0.144082 0.138193 -0.144082
v -0.098533 0.151767 -0.170665
v -0.101882 0.138193 -0.176464
v -0.051005 0.151767 -0.190352
v -0.052738 0.138193 -0.196820
vn -0.4318 0.7919 0.4318
vn -0.5288 0.7919 0.3053
vn -0.6764 0.6245 0.3905
vn -0.5523 0.6245 0.5523
vn -0.0000 1.0000 -0.0000
vn 0.5288 0.7919 0.3053
vn 0.4318 0.7919 0.4318
vn 0.5523 0.6245 0.5523
vn 0.6764 0.6245 0.3905
vn 0.1580 0.7919 -0.5898
vn 0.3053 0.7919 -0.5288
vn 0.3905 0.6245 -0.6764
vn 0.2021 0.6245 -0.7544
vn -0.5898 0.7919 0.1580
vn -0.7544 0.6245 0.2021
vn 0.3053 0.7919 0.5288
vn 0.3905 0.6245 0.6764
vn 0.4318 0.7919 -0.4318
vn 0.5523 0.6245 -0.5523
vn 0.2588 -0.0000 -0.9659
vn -0.0000 -0.0000 -1.0000
vn -0.0000 0.2231 -0.9748
vn 0.2523 0.2231 -0.9416
vn -0.6106 0.7919 -0.0000
vn -0.7810 0.6245 -0.0000
vn 0.1580 0.7919 0.5898
vn 0.2021 0.6245 0.7544
vn 0.5288 0.7919 -0.3053
vn 0.6764 0.6245 -0.3905
vn -0.5898 0.7919 -0.1580
vn -0.7544 0.6245 -0.2021
vn -0.0000 0.7919 0.6106
vn -0.0000 0.6245 0.7810
vn 0.5898 0.7919 -0.1580
vn 0.7544 0.6245 -0.2021
vn -0.5288 0.7919 -0.3053
vn -0.6764 0.6245 -0.3905
vn -0.1580 0.7919 0.5898
vn -0.2021 0.6245 0.7544
vn 0.6106 0.7919 -0.0000
vn 0.7810 0.6245 -0.0000
vn -0.4318 0.7919 -0.4318
vn -0.5523 0.6245 -0.5523
vn -0.3053 0.7919 0.5288
vn -0.3905 0.6245 0.6764
vn 0.5898 0.7919 0.1580
vn 0.7544 0.6245 0.2021
vn -0.3053 0.7919 -0.5288
vn -0.3905 0.6245 -0.6764
vn -0.1580 0.7919 -0.5898
vn -0.2021 0.6245 -0.7544
vn 0.5000 -0.0000 -0.8660
vn 0.4874 0.2231 -0.8442
vn -0.0000 0.7919 -0.6106
vn -0.0000 0.6245 -0.7810
vn 0.7071 -0.0000 -0.7071
vn 0.6893 0.2231 -0.6893
vn 0.8660 -0.0000 -0.5000
vn 0.8442 0.2231 -0.4874
vn 0.9659 -0.0000 -0.2588
vn 0.9416 0.2231 -0.2523
vn 1.0000 -0.0000 -0.0000
vn 0.9748 0.2231 -0.0000
vn 0.9659 -0.0000 0.2588
vn 0.9416 0.2231 0.2523
vn 0.8660 -0.0000 0.5000
vn 0.8442 0.2231 0.4874
vn 0.7071 -0.0000 0.7071
vn 0.6893 0.2231 0.6893
vn 0.5000 -0.0000 0.8660
vn 0.4874 0.2231 0.8442
vn 0.2588 -0.0000 0.9659
vn 0.2523 0.2231 0.9416
vn -0.0000 -0.0000 1.0000
vn -0.0000 0.2231 0.9748
vn -0.2588 -0.0000 0.9659
vn -0.2523 0.2231 0.9416
vn -0.5000 -0.0000 0.8660
vn -0.4874 0.2231 0.8442
vn -0.7071 -0.0000 0.7071
vn -0.6893 0.2231 0.6893
vn -0.8660 -0.0000 0.5000
vn -0.8442 0.2231 0.4874
vn -0.9659 -0.0000 0.2588
vn -0.9416 0.2231 0.2523
vn -1.0000 -0.0000 -0.0000
vn -0.9748 0.2231 -0.0000
vn -0.9659 -0.0000 -0.2588
vn -0.9416 0.2231 -0.2523
vn -0.8660 -0.0000 -0.5000
vn -0.8442 0.2231 -0.4874
vn -0.7071 -0.0000 -0.7071
vn -0.6893 0.2231 -0.6893
vn -0.5000 -0.0000 -0.8660
vn -0.4874 0.2231 -0.8442
vn -0.2588 -0.0000 -0.9659
vn -0.2523 0.2231 -0.9416
vt 0.652810 0.376396
s 1
f 40/1/1 41/1/2 81/1/3 79/1/4
f 25/1/5 26/1/5 48/1/5 47/1/5 46/1/5 45/1/5 44/1/5 43/1/5 42/1/5 41/1/5 40/1/5 39/1/5 38/1/5 37/1/5 36/1/5 35/1/5 34/1/5 33/1/5 32/1/5 31/1/5 30/1/5 29/1/5 28/1/5 27/1/5
f 33/1/6 34/1/7 67/1/8 65/1/9
f 25/1/10 27/1/11 53/1/12 49/1/13
f 41/1/2 42/1/14 83/1/15 81/1/3
f 34/1/7 35/1/16 69/1/17 67/1/8
f 27/1/11 28/1/18 55/1/19 53/1/12
f 2/1/20 1/1/21 51/1/22 50/1/23
f 42/1/14 43/1/24 85/1/25 83/1/15
f 35/1/16 36/1/26 71/1/27 69/1/17
f 28/1/18 29/1/28 57/1/29 55/1/19
f 43/1/24 44/1/30 87/1/31 85/1/25
f 36/1/26 37/1/32 73/1/33 71/1/27
f 29/1/28 30/1/34 59/1/35 57/1/29
f 44/1/30 45/1/36 89/1/37 87/1/31
f 37/1/32 38/1/38 75/1/39 73/1/33
f 30/1/34 31/1/40 61/1/41 59/1/35
f 45/1/36 46/1/42 91/1/43 89/1/37
f 38/1/38 39/1/44 77/1/45 75/1/39
f 31/1/40 32/1/46 63/1/47 61/1/41
f 46/1/42 47/1/48 93/1/49 91/1/43
f 39/1/44 40/1/1 79/1/4 77/1/45
f 32/1/46 33/1/6 65/1/9 63/1/47
f 47/1/48 48/1/50 95/1/51 93/1/49
f 3/1/52 2/1/20 50/1/23 54/1/53
f 48/1/50 26/1/54 52/1/55 95/1/51
f 4/1/56 3/1/52 54/1/53 56/1/57
f 5/1/58 4/1/56 56/1/57 58/1/59
f 6/1/60 5/1/58 58/1/59 60/1/61
f 7/1/62 6/1/60 60/1/61 62/1/63
f 8/1/64 7/1/62 62/1/63 64/1/65
f 9/1/66 8/1/64 64/1/65 66/1/67
f 10/1/68 9/1/66 66/1/67 68/1/69
f 11/1/70 10/1/68 68/1/69 70/1/71
f 12/1/72 11/1/70 70/1/71 72/1/73
f 13/1/74 12/1/72 72/1/73 74/1/75
f 14/1/76 13/1/74 74/1/75 76/1/77
f 15/1/78 14/1/76 76/1/77 78/1/79
f 16/1/80 15/1/78 78/1/79 80/1/81
f 17/1/82 16/1/80 80/1/81 82/1/83
f 18/1/84 17/1/82 82/1/83 84/1/85
f 19/1/86 18/1/84 84/1/85 86/1/87
f 20/1/88 19/1/86 86/1/87 88/1/89
f 21/1/90 20/1/88 88/1/89 90/1/91
f 22/1/92 21/1/90 90/1/91 92/1/93
f 23/1/94 22/1/92 92/1/93 94/1/95
f 24/1/96 23/1/94 94/1/95 96/1/97
f 1/1/21 24/1/96 96/1/97 51/1/22
f 50/1/23 51/1/22 52/1/55 49/1/13
f 54/1/53 50/1/23 49/1/13 53/1/12
f 56/1/57 54/1/53 53/1/12 55/1/19
f 58/1/59 56/1/57 55/1/19 57/1/29
f 60/1/61 58/1/59 57/1/29 59/1/35
f 62/1/63 60/1/61 59/1/35 61/1/41
f 64/1/65 62/1/63 61/1/41 63/1/47
f 66/1/67 64/1/65 63/1/47 65/1/9
f 68/1/69 66/1/67 65/1/9 67/1/8
f 70/1/71 68/1/69 67/1/8 69/1/17
f 72/1/73 70/1/71 69/1/17 71/1/27
f 74/1/75 72/1/73 71/1/27 73/1/33
f 76/1/77 74/1/75 73/1/33 75/1/39
f 78/1/79 76/1/77 75/1/39 77/1/45
f 80/1/81 78/1/79 77/1/45 79/1/4
f 82/1/83 80/1/81 79/1/4 81/1/3
f 84/1/85 82/1/83 81/1/3 83/1/15
f 86/1/87 84/1/85 83/1/15 85/1/25
f 88/1/89 86/1/87 85/1/25 87/1/31
f 90/1/91 88/1/89 87/1/31 89/1/37
f 92/1/93 90/1/91 89/1/37 91/1/43
f 94/1/95 92/1/93 91/1/43 93/1/49
f 96/1/97 94/1/95 93/1/49 95/1/51
f 51/1/22 96/1/97 95/1/51 52/1/55
f 26/1/54 25/1/10 49/1/13 52/1/55
