# Blender 4.0.1
# www.blender.org
mtllib caixa2.mtl
o Cube.001
v -0.363962 0.273930 0.467292
v -0.310979 0.402979 0.467292
v -0.299235 0.273930 0.467292
v -0.246252 0.402979 0.467292
v -0.363962 0.273930 0.516000
v -0.310979 0.402979 0.516000
v -0.299235 0.273930 0.516000
v -0.246252 0.402979 0.516000
v -0.260527 0.273930 0.467292
v -0.207545 0.402979 0.467292
v -0.195800 0.273930 0.467292
v -0.142817 0.402979 0.467292
v -0.260527 0.273930 0.516000
v -0.207545 0.402979 0.516000
v -0.195800 0.273930 0.516000
v -0.142817 0.402979 0.516000
v -0.155049 0.273930 0.467292
v -0.102066 0.402979 0.467292
v -0.090322 0.273930 0.467292
v -0.037339 0.402979 0.467292
v -0.155049 0.273930 0.516000
v -0.102066 0.402979 0.516000
v -0.090322 0.273930 0.516000
v -0.037339 0.402979 0.516000
v -0.406719 0.935383 0.487004
v -0.406719 0.982994 0.439394
v -0.454329 0.935383 0.439394
v -0.406719 0.969049 0.473059
v -0.434207 0.962871 0.466881
v -0.440385 0.969049 0.439394
v -0.440385 0.935383 0.473059
v -0.406719 -0.007187 0.487004
v -0.454329 -0.007187 0.439394
v -0.440385 -0.007187 0.473059
v -0.406719 0.935383 -0.467595
v -0.454329 0.935383 -0.419985
v -0.406719 0.982994 -0.419985
v -0.440385 0.935383 -0.453651
v -0.434207 0.962871 -0.447473
v -0.440385 0.969049 -0.419985
v -0.406719 0.969049 -0.453651
v -0.454329 -0.007187 -0.419985
v -0.406719 -0.007187 -0.467595
v -0.440385 -0.007187 -0.453651
v 0.022970 0.982994 0.439394
v 0.022970 0.969049 0.473059
v 0.022970 0.935383 0.487004
v 0.022970 0.982994 -0.419985
v 0.022970 0.969049 -0.453651
v 0.022970 0.935383 -0.467595
v 0.022970 -0.007187 0.487004
v 0.022970 -0.007187 -0.467595
v -0.406719 0.982994 -0.222794
v -0.406719 0.982994 -0.315392
v -0.440385 0.969049 -0.315392
v -0.440385 0.969049 -0.222794
v -0.454329 0.935383 -0.315392
v -0.454329 0.935383 -0.222794
v -0.454329 -0.007187 -0.222794
v -0.454329 -0.007187 -0.315392
v 0.022970 0.982994 -0.315392
v 0.022970 0.982994 -0.222794
v -0.446039 0.240614 -0.391222
v -0.446039 0.287241 -0.391222
v -0.433167 0.287241 -0.422298
v -0.433167 0.240614 -0.422298
v -0.402091 0.287241 -0.435170
v -0.402091 0.240614 -0.435170
v -0.446040 0.218087 0.402052
v -0.446040 0.171460 0.402052
v -0.433167 0.171460 0.433129
v -0.433167 0.218087 0.433129
v -0.402091 0.171460 0.446001
v -0.402091 0.218087 0.446001
v 0.022970 0.218087 0.446001
v 0.022970 0.171460 0.446001
v 0.022970 0.287241 -0.435170
v 0.022970 0.240614 -0.435170
v -0.446039 0.218087 -0.209199
v -0.446039 0.171460 -0.209199
v -0.446039 0.287241 -0.294674
v -0.446039 0.240614 -0.294674
v -0.454329 0.226995 -0.419985
v -0.449745 0.241034 -0.404080
v -0.452987 0.237137 -0.415327
v -0.449780 0.289418 -0.404202
v -0.454329 0.306623 -0.419985
v -0.452997 0.295554 -0.415362
v -0.436611 0.289542 -0.437256
v -0.440385 0.306574 -0.453651
v -0.439279 0.295576 -0.448849
v -0.440385 0.227044 -0.453651
v -0.436582 0.241059 -0.437132
v -0.439271 0.237159 -0.448812
v -0.404342 0.289587 -0.450940
v -0.406719 0.306546 -0.467595
v -0.406023 0.295581 -0.462717
v -0.406719 0.227072 -0.467595
v -0.404323 0.241067 -0.450810
v -0.406017 0.237169 -0.462679
v -0.450404 0.217592 0.421714
v -0.454329 0.231706 0.439394
v -0.453180 0.221542 0.434215
v -0.454329 0.152078 0.439394
v -0.450417 0.168913 0.421770
v -0.453183 0.163039 0.434232
v -0.437221 0.168751 0.455557
v -0.440385 0.152127 0.473059
v -0.439458 0.163006 0.467933
v -0.440385 0.231657 0.473059
v -0.437212 0.217561 0.455507
v -0.439455 0.221518 0.467918
v -0.406719 0.152155 0.487004
v -0.404736 0.168703 0.469436
v -0.406138 0.163000 0.481858
v -0.404730 0.217552 0.469380
v -0.406719 0.231629 0.487004
v -0.406136 0.221508 0.481842
v 0.022970 0.231620 0.487004
v 0.022970 0.217549 0.469510
v 0.022970 0.221504 0.481880
v 0.022970 0.168687 0.469568
v 0.022970 0.152164 0.487004
v 0.022970 0.162998 0.481897
v 0.022970 0.289602 -0.451038
v 0.022970 0.306537 -0.467595
v 0.022970 0.295582 -0.462746
v 0.022970 0.227081 -0.467595
v 0.022970 0.241070 -0.450907
v 0.022970 0.237173 -0.462708
v -0.449268 0.217721 -0.214493
v -0.454329 0.231780 -0.222794
v -0.452847 0.221601 -0.220363
v -0.454329 0.152005 -0.222794
v -0.449516 0.169437 -0.214900
v -0.452920 0.163171 -0.220482
v -0.454329 0.306697 -0.315392
v -0.449338 0.289161 -0.302593
v -0.452867 0.295500 -0.311643
v -0.449391 0.240994 -0.303049
v -0.454329 0.226921 -0.315392
v -0.452883 0.237104 -0.311777
v 0.452660 0.935383 0.487004
v 0.452660 0.982994 0.439394
v 0.500270 0.935383 0.439394
v 0.452660 0.969049 0.473059
v 0.480148 0.962871 0.466882
v 0.486325 0.969049 0.439394
v 0.486325 0.935383 0.473059
v 0.452660 -0.007187 0.487004
v 0.500270 -0.007187 0.439394
v 0.486325 -0.007187 0.473059
v 0.452660 0.935383 -0.467595
v 0.500270 0.935383 -0.419985
v 0.452660 0.982994 -0.419985
v 0.486325 0.935383 -0.453651
v 0.480148 0.962871 -0.447473
v 0.486325 0.969049 -0.419985
v 0.452660 0.969049 -0.453651
v 0.500270 -0.007187 -0.419985
v 0.452660 -0.007187 -0.467595
v 0.486325 -0.007187 -0.453651
v 0.452660 0.982994 -0.222794
v 0.452660 0.982994 -0.315392
v 0.486325 0.969049 -0.315392
v 0.486325 0.969049 -0.222794
v 0.500270 0.935383 -0.315392
v 0.500270 0.935383 -0.222794
v 0.500270 -0.007187 -0.222794
v 0.500270 -0.007187 -0.315392
v 0.491980 0.240614 -0.391222
v 0.491980 0.287241 -0.391222
v 0.479108 0.287241 -0.422298
v 0.479108 0.240614 -0.422298
v 0.448032 0.287241 -0.435170
v 0.448032 0.240614 -0.435170
v 0.491980 0.218087 0.402053
v 0.491980 0.171460 0.402053
v 0.479108 0.171460 0.433129
v 0.479108 0.218087 0.433129
v 0.448032 0.171460 0.446001
v 0.448032 0.218087 0.446001
v 0.491980 0.218087 -0.209199
v 0.491980 0.171460 -0.209199
v 0.491980 0.287241 -0.294674
v 0.491980 0.240614 -0.294674
v 0.500270 0.226995 -0.419985
v 0.495686 0.241034 -0.404080
v 0.498927 0.237137 -0.415327
v 0.495721 0.289418 -0.404202
v 0.500270 0.306623 -0.419985
v 0.498938 0.295554 -0.415362
v 0.482551 0.289542 -0.437256
v 0.486325 0.306574 -0.453651
v 0.485220 0.295576 -0.448849
v 0.486325 0.227044 -0.453651
v 0.482523 0.241059 -0.437132
v 0.485212 0.237159 -0.448812
v 0.450283 0.289587 -0.450940
v 0.452660 0.306546 -0.467595
v 0.451963 0.295581 -0.462717
v 0.452660 0.227072 -0.467595
v 0.450264 0.241067 -0.450809
v 0.451958 0.237169 -0.462679
v 0.496345 0.217592 0.421714
v 0.500270 0.231706 0.439394
v 0.499120 0.221542 0.434216
v 0.500270 0.152078 0.439394
v 0.496357 0.168913 0.421770
v 0.499124 0.163039 0.434232
v 0.483162 0.168751 0.455557
v 0.486325 0.152127 0.473059
v 0.485399 0.163006 0.467933
v 0.486325 0.231657 0.473059
v 0.483153 0.217561 0.455507
v 0.485396 0.221518 0.467918
v 0.452660 0.152155 0.487004
v 0.450677 0.168703 0.469436
v 0.452079 0.163000 0.481859
v 0.450671 0.217552 0.469380
v 0.452660 0.231629 0.487004
v 0.452077 0.221508 0.481842
v 0.495208 0.217721 -0.214493
v 0.500270 0.231780 -0.222794
v 0.498787 0.221601 -0.220363
v 0.500270 0.152005 -0.222794
v 0.495457 0.169437 -0.214900
v 0.498860 0.163171 -0.220482
v 0.500270 0.306697 -0.315392
v 0.495279 0.289161 -0.302593
v 0.498808 0.295500 -0.311643
v 0.495331 0.240994 -0.303049
v 0.500270 0.226921 -0.315392
v 0.498823 0.237104 -0.311777
vn -0.0000 -0.0000 -1.0000
vn 0.9251 -0.3798 -0.0000
vn -0.0000 -0.0000 1.0000
vn -0.9251 0.3798 -0.0000
vn -0.0000 -1.0000 -0.0000
vn -0.0000 1.0000 -0.0000
vn -0.5030 -0.8643 -0.0000
vn -0.3251 0.3251 0.8881
vn -0.3251 0.8881 0.3251
vn -0.8881 0.3251 0.3251
vn -0.3251 0.3251 -0.8881
vn -0.8881 0.3251 -0.3251
vn -0.3251 0.8881 -0.3251
vn -0.2312 -0.9682 -0.0958
vn -0.0575 -0.9886 -0.1389
vn -0.5030 0.8643 -0.0000
vn -0.3827 0.9239 -0.0000
vn -0.9239 0.3827 -0.0000
vn -0.0000 -0.9997 -0.0229
vn -0.0000 0.9239 0.3827
vn -0.0000 0.3827 0.9239
vn -0.0000 0.3827 -0.9239
vn -0.0000 0.9239 -0.3827
vn -0.0000 -0.9891 -0.1472
vn 0.0395 -0.9991 -0.0163
vn -1.0000 -0.0000 -0.0000
vn -0.8293 0.4345 0.3515
vn -0.1983 0.9767 0.0821
vn -0.3827 -0.0000 0.9239
vn 0.0091 -0.9997 -0.0219
vn -0.3827 -0.0000 -0.9239
vn -0.0462 0.9927 0.1116
vn 0.0113 0.9996 0.0273
vn -0.9239 -0.0000 0.3827
vn 0.1125 0.9937 -0.0000
vn -0.0000 0.9996 0.0289
vn -0.9239 -0.0000 -0.3827
vn 0.0464 0.9987 0.0192
vn 0.1125 -0.9937 -0.0000
vn -0.0000 0.9932 0.1168
vn 0.7368 -0.5252 -0.4257
vn -0.9258 0.2940 0.2375
vn -0.9903 0.1082 0.0874
vn -0.9743 -0.1752 -0.1417
vn 0.2003 -0.7612 -0.6168
vn -0.8916 0.4528 -0.0006
vn -0.9934 0.1147 -0.0002
vn -0.9917 -0.1283 -0.0003
vn -0.7769 -0.6297 -0.0010
vn -0.0001 0.9498 -0.3128
vn -0.0000 0.4368 -0.8995
vn -0.0000 -0.4056 -0.9140
vn -0.1206 -0.9509 0.2849
vn -0.3440 -0.4459 0.8263
vn -0.3487 0.4203 0.8377
vn -0.1654 0.9044 0.3932
vn -0.4605 -0.8686 0.1829
vn -0.8891 -0.2765 0.3649
vn -0.8938 0.2577 0.3670
vn -0.5945 0.7677 0.2394
vn -0.1227 0.9487 -0.2913
vn -0.3462 0.4328 -0.8324
vn -0.3516 -0.4016 -0.8457
vn -0.1776 -0.8881 -0.4240
vn -0.4498 0.8746 -0.1811
vn -0.8880 0.2790 -0.3655
vn -0.8939 -0.2560 -0.3681
vn -0.6070 -0.7553 -0.2470
vn -0.0001 -0.8909 -0.4542
vn -0.0001 0.9084 0.4181
vn -0.0000 0.4275 0.9040
vn -0.0000 -0.4531 0.8915
vn -0.7589 0.6512 0.0019
vn -0.9907 0.1357 0.0006
vn -0.9922 -0.1243 0.0006
vn -0.8808 -0.4735 0.0017
vn -0.0001 -0.9528 0.3036
vn 0.5030 -0.8643 -0.0000
vn 0.3251 0.3251 0.8881
vn 0.3251 0.8881 0.3251
vn 0.8881 0.3251 0.3251
vn 0.3251 0.3251 -0.8881
vn 0.8881 0.3251 -0.3251
vn 0.3251 0.8881 -0.3251
vn 0.2312 -0.9682 -0.0958
vn 0.0575 -0.9886 -0.1389
vn 0.5030 0.8643 -0.0000
vn 0.3827 0.9239 -0.0000
vn 0.9239 0.3827 -0.0000
vn -0.0395 -0.9991 -0.0163
vn 1.0000 -0.0000 -0.0000
vn 0.8293 0.4345 0.3515
vn 0.1983 0.9767 0.0821
vn 0.3827 -0.0000 0.9239
vn -0.0091 -0.9997 -0.0219
vn 0.3827 -0.0000 -0.9239
vn 0.0462 0.9927 0.1116
vn -0.0113 0.9996 0.0273
vn 0.9239 -0.0000 0.3827
vn -0.1125 0.9937 -0.0000
vn 0.9239 -0.0000 -0.3827
vn -0.0464 0.9987 0.0192
vn -0.1125 -0.9937 -0.0000
vn -0.7368 -0.5253 -0.4258
vn 0.9258 0.2940 0.2375
vn 0.9903 0.1082 0.0874
vn 0.9743 -0.1752 -0.1417
vn -0.2003 -0.7612 -0.6168
vn 0.8916 0.4528 -0.0006
vn 0.9934 0.1147 -0.0002
vn 0.9917 -0.1283 -0.0003
vn 0.7769 -0.6297 -0.0010
vn 0.0001 0.9498 -0.3128
vn 0.1206 -0.9509 0.2849
vn 0.3440 -0.4459 0.8263
vn 0.3487 0.4203 0.8377
vn 0.1654 0.9044 0.3932
vn 0.4605 -0.8686 0.1829
vn 0.8891 -0.2765 0.3649
vn 0.8938 0.2577 0.3671
vn 0.5945 0.7677 0.2394
vn 0.1227 0.9487 -0.2913
vn 0.3462 0.4328 -0.8324
vn 0.3516 -0.4016 -0.8457
vn 0.1776 -0.8881 -0.4240
vn 0.4498 0.8746 -0.1811
vn 0.8880 0.2790 -0.3655
vn 0.8939 -0.2560 -0.3681
vn 0.6070 -0.7553 -0.2470
vn 0.0001 -0.8909 -0.4542
vn 0.0001 0.9084 0.4181
vn 0.7589 0.6512 0.0019
vn 0.9907 0.1357 0.0006
vn 0.9922 -0.1243 0.0006
vn 0.8808 -0.4735 0.0017
vn 0.0001 -0.9528 0.3036
vt 0.969078 0.354085
vt 0.954092 0.609441
vt 0.943895 0.132437
vt 0.941487 0.054251
vt 0.057839 0.375918
s 0
usemtl Material.003
f 1/1/1 2/1/1 4/1/1 3/1/1
f 3/1/2 4/1/2 8/1/2 7/1/2
f 7/1/3 8/1/3 6/1/3 5/1/3
f 5/1/4 6/1/4 2/1/4 1/1/4
f 3/1/5 7/1/5 5/1/5 1/1/5
f 8/1/6 4/1/6 2/1/6 6/1/6
f 9/1/1 10/1/1 12/1/1 11/1/1
f 11/1/2 12/1/2 16/1/2 15/1/2
f 15/1/3 16/1/3 14/1/3 13/1/3
f 13/1/4 14/1/4 10/1/4 9/1/4
f 11/1/5 15/1/5 13/1/5 9/1/5
f 16/1/6 12/1/6 10/1/6 14/1/6
f 17/1/1 18/1/1 20/1/1 19/1/1
f 19/1/2 20/1/2 24/1/2 23/1/2
f 23/1/3 24/1/3 22/1/3 21/1/3
f 21/1/4 22/1/4 18/1/4 17/1/4
f 19/1/5 23/1/5 21/1/5 17/1/5
f 24/1/6 20/1/6 18/1/6 22/1/6
f 119/2/3 47/2/3 25/2/3 117/2/3
f 138/3/7 86/3/7 64/4/7 81/4/7
f 52/2/5 51/2/5 32/2/5 34/2/5 33/2/5 59/2/5 60/2/5 42/2/5 44/2/5 43/2/5
f 61/2/6 48/2/6 37/2/6 54/2/6
f 25/2/8 28/2/8 29/2/8 31/2/8
f 26/2/9 30/2/9 29/2/9 28/2/9
f 27/2/10 31/2/10 29/2/10 30/2/10
f 35/2/11 38/2/11 39/2/11 41/2/11
f 36/2/12 40/2/12 39/2/12 38/2/12
f 37/2/13 41/2/13 39/2/13 40/2/13
f 86/3/14 89/3/14 65/4/14 64/4/14
f 89/3/15 95/3/15 67/4/15 65/4/15
f 135/3/16 105/3/16 70/4/16 80/4/16
f 54/2/17 37/2/17 40/2/17 55/2/17
f 55/2/18 40/2/18 36/2/18 57/2/18
f 120/3/19 116/3/19 74/4/19 75/4/19
f 45/2/20 26/2/20 28/2/20 46/2/20
f 46/2/21 28/2/21 25/2/21 47/2/21
f 41/2/22 49/2/22 50/2/22 35/2/22
f 37/2/23 48/2/23 49/2/23 41/2/23
f 30/2/18 56/2/18 58/2/18 27/2/18
f 56/2/18 55/2/18 57/2/18 58/2/18
f 26/2/17 53/2/17 56/2/17 30/2/17
f 53/2/17 54/2/17 55/2/17 56/2/17
f 95/3/24 125/3/24 77/4/24 67/4/24
f 45/2/6 62/2/6 53/2/6 26/2/6
f 111/3/25 101/3/25 69/4/25 72/4/25
f 59/2/26 134/2/26 141/2/26 60/2/26
f 140/3/27 135/3/27 80/4/27 82/4/27
f 33/2/26 104/2/26 134/2/26 59/2/26
f 105/3/28 107/3/28 71/4/28 70/4/28
f 31/2/29 110/2/29 117/2/29 25/2/29
f 62/2/6 61/2/6 54/2/6 53/2/6
f 116/3/30 111/3/30 72/4/30 74/4/30
f 90/2/31 38/2/31 35/2/31 96/2/31
f 107/3/32 114/3/32 73/4/32 71/4/32
f 99/3/33 93/3/33 66/4/33 68/4/33
f 104/2/34 33/2/34 34/2/34 108/2/34
f 84/3/35 140/3/35 82/4/35 63/4/35
f 102/2/26 27/2/26 58/2/26 132/2/26
f 129/3/36 99/3/36 68/4/36 78/4/36
f 87/2/37 36/2/37 38/2/37 90/2/37
f 93/3/38 84/3/38 63/4/38 66/4/38
f 101/3/39 131/3/39 79/4/39 69/4/39
f 80/5/26 79/5/26 81/5/26 82/5/26
f 70/5/26 69/5/26 79/5/26 80/5/26
f 114/3/40 122/3/40 76/4/40 73/4/40
f 72/5/29 71/5/29 73/5/29 74/5/29
f 69/5/34 70/5/34 71/5/34 72/5/34
f 66/5/31 65/5/31 67/5/31 68/5/31
f 63/5/37 64/5/37 65/5/37 66/5/37
f 68/5/1 67/5/1 77/5/1 78/5/1
f 82/5/26 81/5/26 64/5/26 63/5/26
f 44/2/31 92/2/31 98/2/31 43/2/31
f 132/2/26 58/2/26 57/2/26 137/2/26
f 42/2/37 83/2/37 92/2/37 44/2/37
f 76/5/3 75/5/3 74/5/3 73/5/3
f 27/2/34 102/2/34 110/2/34 31/2/34
f 43/2/1 98/2/1 128/2/1 52/2/1
f 137/2/26 57/2/26 36/2/26 87/2/26
f 108/2/29 34/2/29 32/2/29 113/2/29
f 131/3/41 138/3/41 81/4/41 79/4/41
f 135/3/42 140/3/42 142/3/42 136/3/42
f 136/3/43 142/3/43 141/3/43 134/3/43
f 132/3/44 137/3/44 139/3/44 133/3/44
f 133/3/45 139/3/45 138/3/45 131/3/45
f 105/3/46 135/3/46 136/3/46 106/3/46
f 106/3/47 136/3/47 134/3/47 104/3/47
f 102/3/48 132/3/48 133/3/48 103/3/48
f 103/3/49 133/3/49 131/3/49 101/3/49
f 51/2/3 123/2/3 113/2/3 32/2/3
f 99/3/50 129/3/50 130/3/50 100/3/50
f 100/3/51 130/3/51 128/3/51 98/3/51
f 96/3/52 126/3/52 127/3/52 97/3/52
f 111/3/53 116/3/53 118/3/53 112/3/53
f 112/3/54 118/3/54 117/3/54 110/3/54
f 108/3/55 113/3/55 115/3/55 109/3/55
f 109/3/56 115/3/56 114/3/56 107/3/56
f 101/3/57 111/3/57 112/3/57 103/3/57
f 103/3/58 112/3/58 110/3/58 102/3/58
f 104/3/59 108/3/59 109/3/59 106/3/59
f 106/3/60 109/3/60 107/3/60 105/3/60
f 93/3/61 99/3/61 100/3/61 94/3/61
f 94/3/62 100/3/62 98/3/62 92/3/62
f 90/3/63 96/3/63 97/3/63 91/3/63
f 91/3/64 97/3/64 95/3/64 89/3/64
f 84/3/65 93/3/65 94/3/65 85/3/65
f 85/3/66 94/3/66 92/3/66 83/3/66
f 87/3/67 90/3/67 91/3/67 88/3/67
f 88/3/68 91/3/68 89/3/68 86/3/68
f 97/3/69 127/3/69 125/3/69 95/3/69
f 122/3/70 114/3/70 115/3/70 124/3/70
f 124/3/71 115/3/71 113/3/71 123/3/71
f 119/3/72 117/3/72 118/3/72 121/3/72
f 140/3/73 84/3/73 85/3/73 142/3/73
f 142/3/74 85/3/74 83/3/74 141/3/74
f 137/3/75 87/3/75 88/3/75 139/3/75
f 139/3/76 88/3/76 86/3/76 138/3/76
f 60/2/26 141/2/26 83/2/26 42/2/26
f 96/2/1 35/2/1 50/2/1 126/2/1
f 121/3/77 118/3/77 116/3/77 120/3/77
f 119/2/3 221/2/3 143/2/3 47/2/3
f 230/3/78 185/4/78 172/4/78 190/3/78
f 52/2/5 161/2/5 162/2/5 160/2/5 170/2/5 169/2/5 151/2/5 152/2/5 150/2/5 51/2/5
f 61/2/6 164/2/6 155/2/6 48/2/6
f 143/2/79 149/2/79 147/2/79 146/2/79
f 144/2/80 146/2/80 147/2/80 148/2/80
f 145/2/81 148/2/81 147/2/81 149/2/81
f 153/2/82 159/2/82 157/2/82 156/2/82
f 154/2/83 156/2/83 157/2/83 158/2/83
f 155/2/84 158/2/84 157/2/84 159/2/84
f 190/3/85 172/4/85 173/4/85 193/3/85
f 193/3/86 173/4/86 175/4/86 199/3/86
f 227/3/87 184/4/87 178/4/87 209/3/87
f 164/2/88 165/2/88 158/2/88 155/2/88
f 165/2/89 167/2/89 154/2/89 158/2/89
f 120/3/19 75/4/19 182/4/19 220/3/19
f 45/2/20 46/2/20 146/2/20 144/2/20
f 46/2/21 47/2/21 143/2/21 146/2/21
f 159/2/22 153/2/22 50/2/22 49/2/22
f 155/2/23 159/2/23 49/2/23 48/2/23
f 148/2/89 145/2/89 168/2/89 166/2/89
f 166/2/89 168/2/89 167/2/89 165/2/89
f 144/2/88 148/2/88 166/2/88 163/2/88
f 163/2/88 166/2/88 165/2/88 164/2/88
f 199/3/24 175/4/24 77/4/24 125/3/24
f 45/2/6 144/2/6 163/2/6 62/2/6
f 215/3/90 180/4/90 177/4/90 205/3/90
f 169/2/91 170/2/91 233/2/91 226/2/91
f 232/3/92 186/4/92 184/4/92 227/3/92
f 151/2/91 169/2/91 226/2/91 208/2/91
f 209/3/93 178/4/93 179/4/93 211/3/93
f 149/2/94 143/2/94 221/2/94 214/2/94
f 62/2/6 163/2/6 164/2/6 61/2/6
f 220/3/95 182/4/95 180/4/95 215/3/95
f 194/2/96 200/2/96 153/2/96 156/2/96
f 211/3/97 179/4/97 181/4/97 218/3/97
f 203/3/98 176/4/98 174/4/98 197/3/98
f 208/2/99 212/2/99 152/2/99 151/2/99
f 188/3/100 171/4/100 186/4/100 232/3/100
f 206/2/91 224/2/91 168/2/91 145/2/91
f 129/3/36 78/4/36 176/4/36 203/3/36
f 191/2/101 194/2/101 156/2/101 154/2/101
f 197/3/102 174/4/102 171/4/102 188/3/102
f 205/3/103 177/4/103 183/4/103 223/3/103
f 184/5/91 186/5/91 185/5/91 183/5/91
f 178/5/91 184/5/91 183/5/91 177/5/91
f 218/3/40 181/4/40 76/4/40 122/3/40
f 180/5/94 182/5/94 181/5/94 179/5/94
f 177/5/99 180/5/99 179/5/99 178/5/99
f 174/5/96 176/5/96 175/5/96 173/5/96
f 171/5/101 174/5/101 173/5/101 172/5/101
f 176/5/1 78/5/1 77/5/1 175/5/1
f 186/5/91 171/5/91 172/5/91 185/5/91
f 162/2/96 161/2/96 202/2/96 196/2/96
f 224/2/91 229/2/91 167/2/91 168/2/91
f 160/2/101 162/2/101 196/2/101 187/2/101
f 76/5/3 181/5/3 182/5/3 75/5/3
f 145/2/99 149/2/99 214/2/99 206/2/99
f 161/2/1 52/2/1 128/2/1 202/2/1
f 229/2/91 191/2/91 154/2/91 167/2/91
f 212/2/94 217/2/94 150/2/94 152/2/94
f 223/3/104 183/4/104 185/4/104 230/3/104
f 227/3/105 228/3/105 234/3/105 232/3/105
f 228/3/106 226/3/106 233/3/106 234/3/106
f 224/3/107 225/3/107 231/3/107 229/3/107
f 225/3/108 223/3/108 230/3/108 231/3/108
f 209/3/109 210/3/109 228/3/109 227/3/109
f 210/3/110 208/3/110 226/3/110 228/3/110
f 206/3/111 207/3/111 225/3/111 224/3/111
f 207/3/112 205/3/112 223/3/112 225/3/112
f 51/2/3 150/2/3 217/2/3 123/2/3
f 203/3/113 204/3/113 130/3/113 129/3/113
f 204/3/51 202/3/51 128/3/51 130/3/51
f 200/3/52 201/3/52 127/3/52 126/3/52
f 215/3/114 216/3/114 222/3/114 220/3/114
f 216/3/115 214/3/115 221/3/115 222/3/115
f 212/3/116 213/3/116 219/3/116 217/3/116
f 213/3/117 211/3/117 218/3/117 219/3/117
f 205/3/118 207/3/118 216/3/118 215/3/118
f 207/3/119 206/3/119 214/3/119 216/3/119
f 208/3/120 210/3/120 213/3/120 212/3/120
f 210/3/121 209/3/121 211/3/121 213/3/121
f 197/3/122 198/3/122 204/3/122 203/3/122
f 198/3/123 196/3/123 202/3/123 204/3/123
f 194/3/124 195/3/124 201/3/124 200/3/124
f 195/3/125 193/3/125 199/3/125 201/3/125
f 188/3/126 189/3/126 198/3/126 197/3/126
f 189/3/127 187/3/127 196/3/127 198/3/127
f 191/3/128 192/3/128 195/3/128 194/3/128
f 192/3/129 190/3/129 193/3/129 195/3/129
f 201/3/130 199/3/130 125/3/130 127/3/130
f 122/3/131 124/3/131 219/3/131 218/3/131
f 124/3/71 123/3/71 217/3/71 219/3/71
f 119/3/72 121/3/72 222/3/72 221/3/72
f 232/3/132 234/3/132 189/3/132 188/3/132
f 234/3/133 233/3/133 187/3/133 189/3/133
f 229/3/134 231/3/134 192/3/134 191/3/134
f 231/3/135 230/3/135 190/3/135 192/3/135
f 170/2/91 160/2/91 187/2/91 233/2/91
f 200/2/1 126/2/1 50/2/1 153/2/1
f 121/3/136 120/3/136 220/3/136 222/3/136
