# Blender 4.0.1
# www.blender.org
o backup.004
v 5.076898 1.879229 2.920943
v 5.824190 1.879230 -0.620980
v -1.209160 1.879230 5.731032
v 2.390388 1.879230 5.347228
v -5.824190 1.879231 0.620980
v -4.346849 1.879230 3.925775
v -2.390388 1.879230 -5.347228
v -5.076898 1.879230 -2.920942
v 4.346849 1.879230 -3.925775
v 1.209160 1.879230 -5.731032
v 5.102035 1.879230 -2.876810
v -1.159412 1.879228 -5.741303
v -5.818583 1.879233 -0.671488
v -2.436667 1.879226 5.326298
v 4.312651 1.879221 3.963312
v 2.436667 1.879230 -5.326298
v -4.312650 1.879230 -3.963314
v -5.102031 1.879230 2.876817
v 1.159417 1.879230 5.741302
v 5.818583 1.879230 0.671490
v 5.295128 0.029579 2.726957
v 5.886722 0.029579 -0.906190
v -0.957232 0.029579 5.878638
v 2.680962 0.029579 5.318564
v -5.886722 0.029579 0.906190
v -4.229796 0.029579 4.193270
v -2.680962 0.029579 -5.318564
v -5.295128 0.029579 -2.726957
v 4.229796 0.029579 -4.193270
v 0.957232 0.029579 -5.878638
v 5.318576 0.029579 -2.680939
v -0.906214 0.029576 -5.886719
v -5.878638 0.029583 -0.957230
v -2.726982 0.029574 5.295115
v 4.193283 0.029568 4.229782
v 2.726982 0.029579 -5.295115
v -4.193282 0.029579 -4.229784
v -5.318572 0.029579 2.680947
v 0.906219 0.029579 5.886718
v 5.878638 0.029579 0.957232
v 5.318576 2.162495 -2.680939
v 4.229796 2.162495 -4.193270
v -0.906214 2.162492 -5.886719
v -2.680962 2.162494 -5.318564
v -5.878638 2.162499 -0.957230
v -5.886722 2.162495 0.906190
v -2.726982 2.162490 5.295115
v -0.957232 2.162495 5.878638
v 4.193283 2.162484 4.229782
v 5.295128 2.162495 2.726957
v 2.726982 2.162494 -5.295115
v 0.957232 2.162494 -5.878638
v -4.193282 2.162495 -4.229784
v -5.295128 2.162495 -2.726957
v -5.318572 2.162495 2.680947
v -4.229796 2.162495 4.193270
v 0.906219 2.162495 5.886718
v 2.680962 2.162495 5.318564
v 5.878638 2.162495 0.957232
v 5.886722 2.162495 -0.906190
v 4.346849 1.007244 -3.925775
v 5.102035 1.007244 -2.876810
v -2.390388 1.007244 -5.347228
v -1.159412 1.007241 -5.741303
v -5.824190 1.007244 0.620980
v -5.818583 1.007247 -0.671488
v -1.209160 1.007244 5.731032
v -2.436667 1.007240 5.326298
v 5.076898 1.007242 2.920943
v 4.312651 1.007234 3.963312
v 2.436667 1.007244 -5.326298
v -4.312650 1.007244 -3.963314
v 1.209160 1.007244 -5.731032
v -5.102031 1.007244 2.876817
v -5.076898 1.007244 -2.920943
v 1.159417 1.007244 5.741302
v -4.346849 1.007244 3.925775
v 5.818583 1.007244 0.671490
v 2.390388 1.007244 5.347228
v 5.824190 1.007244 -0.620980
v 5.194361 0.936578 -2.853475
v 4.354011 0.936578 -4.020733
v -1.108690 0.936575 -5.821899
v -2.478486 0.936577 -5.383383
v -5.879560 0.936581 -0.744634
v -5.885800 0.936578 0.693594
v -2.525076 0.936573 5.361688
v -1.159138 0.936577 5.812066
v 4.318989 0.936567 4.058330
v 5.169422 0.936576 2.898409
v 2.525076 0.936578 -5.361688
v 1.159138 0.936578 -5.812066
v -4.318988 0.936578 -4.058331
v -5.169422 0.936578 -2.898409
v -5.194356 0.936578 2.853483
v -4.354011 0.936578 4.020733
v 1.108694 0.936578 5.821898
v 2.478486 0.936578 5.383383
v 5.879560 0.936578 0.744636
v 5.885800 0.936578 -0.693594
v 5.194361 1.949897 -2.853475
v 4.354011 1.949897 -4.020733
v -1.108690 1.949893 -5.821899
v -2.478486 1.949896 -5.383383
v -5.879560 1.949900 -0.744634
v -5.885800 1.949897 0.693594
v -2.525076 1.949893 5.361688
v -1.159138 1.949896 5.812066
v 4.318990 1.949887 4.058330
v 5.169423 1.949896 2.898409
v 2.525076 1.949897 -5.361688
v 1.159138 1.949897 -5.812066
v -4.318988 1.949897 -4.058331
v -5.169422 1.949897 -2.898409
v -5.194356 1.949897 2.853483
v -4.354011 1.949897 4.020733
v 1.108694 1.949898 5.821898
v 2.478486 1.949897 5.383383
v 5.879560 1.949897 0.744636
v 5.885800 1.949897 -0.693594
v 4.949027 1.020319 -2.790535
v 4.216489 1.020319 -3.808043
v -1.124642 1.020316 -5.569124
v -2.318701 1.020319 -5.186867
v -5.644086 1.020322 -0.651351
v -5.649525 1.020320 0.602358
v -2.363593 1.020315 5.166564
v -1.172898 1.020319 5.559161
v 4.183316 1.020310 3.844454
v 4.924644 1.020318 2.833345
v 2.363593 1.020319 -5.166564
v 1.172898 1.020319 -5.559161
v -4.183315 1.020319 -3.844456
v -4.924644 1.020319 -2.833345
v -4.949023 1.020319 2.790543
v -4.216489 1.020319 3.808042
v 1.124646 1.020319 5.569123
v 2.318701 1.020319 5.186867
v 5.644086 1.020319 0.651353
v 5.649525 1.020319 -0.602358
v 4.949027 1.866155 -2.790535
v 4.216489 1.866155 -3.808043
v -1.124642 1.866153 -5.569124
v -2.318701 1.866155 -5.186867
v -5.644086 1.866158 -0.651351
v -5.649525 1.866155 0.602358
v -2.363593 1.866151 5.166564
v -1.172898 1.866154 5.559161
v 4.183317 1.866146 3.844454
v 4.924644 1.866153 2.833345
v 2.363593 1.866155 -5.166564
v 1.172898 1.866155 -5.559161
v -4.183315 1.866155 -3.844456
v -4.924644 1.866155 -2.833344
v -4.949023 1.866155 2.790543
v -4.216489 1.866155 3.808042
v 1.124646 1.866156 5.569123
v 2.318701 1.866155 5.186867
v 5.644086 1.866155 0.651353
v 5.649525 1.866155 -0.602358
v -0.801300 1.799134 5.879314
v -0.472838 2.041667 5.880738
v 0.000000 2.139978 5.882788
v 0.472839 2.041667 5.884839
v -0.801300 0.029579 5.879314
v 0.801300 0.029579 5.886263
v 0.801300 1.799134 5.886263
v -0.801300 1.799135 8.320622
v -0.472838 2.041667 8.322046
v 0.000000 2.139979 8.324097
v 0.472839 2.041667 8.326146
v -0.801300 0.029580 8.320622
v 0.801300 0.029580 8.327571
v 0.801300 1.799135 8.327571
v 0.801300 1.799135 8.062258
v 0.472839 2.041667 8.060833
v -0.801300 1.799135 8.055308
v -0.801300 0.029580 8.055308
v 0.000000 2.139979 8.058783
v 0.801300 0.029580 8.062258
v -0.472838 2.041667 8.056733
v -0.472838 2.041667 8.322046
v 0.000000 2.139979 8.324097
v 0.472839 2.041667 8.326146
v 0.801300 1.799135 8.327571
v 0.801300 0.029580 8.327571
v -0.801300 1.799135 8.320622
v -0.801300 0.029580 8.320622
v 0.435213 1.957527 8.060670
v -0.801300 0.029580 8.055308
v 0.000000 2.048016 8.058783
v 0.711263 1.753695 8.061867
v -0.711263 1.753695 8.055698
v 0.801300 0.029580 8.062258
v -0.435212 1.957527 8.056895
v -0.556305 2.152899 8.283984
v -0.519215 2.103472 8.334856
v 0.000000 2.211269 8.337079
v 0.000000 2.268565 8.286395
v 0.519222 2.103480 8.339360
v 0.556305 2.152899 8.288808
v 0.880147 1.837275 8.340965
v 0.942747 1.867555 8.290483
v 0.942747 0.035100 8.290483
v 0.880238 0.032661 8.340981
v -0.942746 1.867555 8.282308
v -0.880129 1.837266 8.333330
v -0.880217 0.032660 8.333344
v -0.942746 0.035100 8.282308
v 0.556305 2.152899 8.122643
v 0.504804 2.084266 8.052004
v -0.942747 0.035100 8.116143
v -0.855949 0.031713 8.046024
v 0.000000 2.268565 8.120232
v 0.000000 2.189005 8.049854
v 0.855798 1.825497 8.053472
v 0.942747 1.867555 8.124319
v -0.855824 1.825509 8.046045
v -0.942747 1.867555 8.116143
v 0.855920 0.031712 8.053452
v 0.942747 0.035100 8.124319
v -0.504813 2.084278 8.047624
v -0.556304 2.152899 8.117819
v -0.472838 2.041667 8.056733
v 0.000000 2.139979 8.058783
v -0.801300 1.799135 8.055308
v 0.801300 1.799135 8.062258
v 0.472839 2.041667 8.060833
v 0.711263 0.119618 8.061867
v 0.711263 0.119617 5.387953
v -0.711263 0.119618 8.055698
v -0.711263 0.119617 5.381784
v -0.435212 1.957526 5.382981
v 0.000000 2.048016 5.384869
v -0.711263 1.753694 5.381784
v 0.711263 1.753694 5.387953
v 0.435213 1.957526 5.386755
vn -0.9524 -0.0000 0.3049
vn 0.9524 -0.0000 -0.3049
vn 0.0602 -0.9972 0.0442
vn -0.9802 -0.0000 0.1979
vn 0.0043 -0.0000 -1.0000
vn -0.9497 -0.0000 -0.3131
vn -0.5913 -0.0000 0.8065
vn 0.5843 -0.0000 0.8116
vn -0.5843 -0.0000 -0.8116
vn 0.9497 -0.0000 0.3131
vn 0.0606 0.9972 -0.0436
vn -0.0234 -0.9972 0.0709
vn 0.5913 -0.0000 -0.8065
vn -0.0043 -0.0000 1.0000
vn 0.1146 -0.0000 -0.9934
vn -0.9785 -0.0000 -0.2064
vn -0.0747 -0.9972 -0.0003
vn -0.6767 -0.0000 0.7363
vn 0.6702 -0.0000 0.7421
vn -0.0228 -0.9972 -0.0711
vn 0.8116 -0.0000 -0.5843
vn -0.3049 -0.0000 -0.9524
vn -1.0000 -0.0000 -0.0043
vn -0.3131 -0.0000 0.9497
vn 0.8065 -0.0000 0.5913
vn 0.3131 -0.0000 -0.9497
vn -0.8065 -0.0000 -0.5913
vn -0.8116 -0.0000 0.5843
vn 0.3049 -0.0000 0.9524
vn 1.0000 -0.0000 0.0043
vn 0.6131 0.6552 -0.4414
vn -0.2303 0.6552 -0.7195
vn -0.7554 0.6552 -0.0033
vn -0.2366 0.6552 0.7174
vn 0.6092 0.6552 0.4467
vn 0.2366 0.6552 -0.7174
vn -0.6092 0.6552 -0.4467
vn -0.6131 0.6552 0.4414
vn 0.2303 0.6552 0.7195
vn 0.7554 0.6552 0.0033
vn 0.6131 -0.6552 -0.4414
vn -0.2303 -0.6552 -0.7195
vn -0.7554 -0.6552 -0.0033
vn -0.2366 -0.6552 0.7174
vn 0.6092 -0.6552 0.4467
vn 0.2366 -0.6552 -0.7174
vn -0.6092 -0.6552 -0.4467
vn -0.6131 -0.6552 0.4414
vn 0.2303 -0.6552 0.7195
vn 0.7554 -0.6552 0.0033
vn -0.2450 -0.0000 0.9695
vn -0.7625 -0.0000 -0.6470
vn 0.2450 -0.0000 -0.9695
vn 0.7625 -0.0000 0.6470
vn -0.2366 -0.0000 -0.9716
vn -0.9978 -0.0000 0.0666
vn 0.7681 -0.0000 -0.6403
vn -0.8463 -0.0000 -0.5326
vn 0.8509 -0.0000 -0.5253
vn -0.7681 -0.0000 0.6403
vn 0.3716 -0.0000 0.9284
vn -0.9972 -0.0000 -0.0752
vn 0.9978 -0.0000 -0.0666
vn -0.3797 -0.0000 0.9251
vn 0.3797 -0.0000 -0.9251
vn 0.2366 -0.0000 0.9716
vn -0.3716 -0.0000 -0.9284
vn 0.8463 -0.0000 0.5326
vn 0.9972 -0.0000 0.0752
vn -0.8509 -0.0000 0.5253
vn -0.0228 0.9972 -0.0711
vn 0.9785 -0.0000 0.2064
vn 0.0234 -0.9972 -0.0709
vn -0.0747 0.9972 -0.0003
vn -0.1146 -0.0000 0.9934
vn -0.0602 -0.9972 -0.0442
vn -0.0234 0.9972 0.0709
vn 0.9094 -0.0000 0.4160
vn -0.0606 -0.9972 0.0436
vn 0.0602 0.9972 0.0442
vn -0.6703 -0.0000 -0.7421
vn 0.0228 -0.9972 0.0711
vn 0.0234 0.9972 -0.0709
vn 0.6767 -0.0000 -0.7363
vn 0.0747 -0.9972 0.0003
vn -0.0602 0.9972 -0.0442
vn -0.9129 -0.0000 0.4081
vn 0.4912 -0.0000 0.8711
vn -0.0606 0.9972 0.0436
vn 0.9129 -0.0000 -0.4081
vn -0.1060 -0.0000 -0.9944
vn 0.0228 0.9972 0.0711
vn -0.4987 -0.0000 0.8668
vn -0.4912 -0.0000 -0.8711
vn 0.0747 0.9972 0.0003
vn -0.9094 -0.0000 -0.4160
vn 0.1060 -0.0000 0.9944
vn 0.0606 -0.9972 -0.0436
vn 0.9802 -0.0000 -0.1980
vn 0.4987 -0.0000 -0.8668
vn -0.0000 1.0000 -0.0000
vn -0.0000 -0.0000 -1.0000
vn -0.0000 -0.0000 1.0000
vn -0.2036 0.9791 -0.0000
vn -0.5940 0.8045 -0.0000
vn 1.0000 -0.0000 -0.0000
vn 0.2036 0.9791 -0.0000
vn -1.0000 -0.0000 -0.0000
vn 0.5940 0.8045 -0.0000
vn -0.0390 -0.9992 -0.0000
vn -0.0944 -0.1336 -0.9865
vn -0.1592 -0.0000 -0.9873
vn 0.0001 1.0000 -0.0000
vn -0.0000 -0.0000 -0.0000
vn -0.0001 1.0000 -0.0000
vn -0.1675 -0.0000 0.9859
vn 0.0415 -0.1790 -0.9830
vn -0.1029 -0.1335 0.9857
vn 0.0330 -0.1791 0.9833
vn -0.0415 -0.1790 0.9830
vn 0.1029 -0.1335 -0.9857
vn -0.0330 -0.1791 -0.9833
vn 0.1592 -0.0000 0.9873
vn 0.0390 -0.9992 -0.0000
vn 0.1675 -0.0000 -0.9859
vn 0.5940 -0.8045 -0.0000
vn 0.2036 -0.9791 -0.0000
vn -0.2036 -0.9791 -0.0000
vn -0.5940 -0.8045 -0.0000
vn -0.1396 0.6567 0.7411
vn 0.1333 0.6573 0.7417
vn 0.3744 0.5119 0.7732
vn 0.6281 -0.0000 0.7782
vn -0.3801 0.5105 0.7713
vn -0.6320 -0.0000 0.7750
vn 0.0944 -0.1336 0.9865
vn -0.1333 0.6573 -0.7417
vn -0.3743 0.5120 -0.7732
vn 0.6320 -0.0000 -0.7750
vn 0.1396 0.6567 -0.7411
vn -0.6281 -0.0000 -0.7782
vn 0.3800 0.5106 -0.7713
vt 0.950832 0.365228
vt 0.975527 0.203793
vt 0.029267 0.853695
vt 0.919729 0.357608
vt 0.000000 0.000000
vt 0.963943 0.518480
vt 0.943021 0.445825
vt 0.972662 0.364777
vt 0.966119 0.050628
s 0
f 55/1/1 46/1/1 25/1/1 38/1/1
f 41/1/2 60/1/2 22/1/2 31/1/2
f 1/2/3 15/2/3 149/2/3 150/2/3
f 12/2/4 64/2/4 123/2/4 143/2/4
f 43/1/5 52/1/5 30/1/5 32/1/5
f 45/1/6 54/1/6 28/1/6 33/1/6
f 47/1/7 56/1/7 26/1/7 34/1/7
f 49/1/8 58/1/8 24/1/8 35/1/8
f 53/1/9 44/1/9 27/1/9 37/1/9
f 59/1/10 50/1/10 21/1/10 40/1/10
f 62/2/11 61/2/11 122/2/11 121/2/11
f 3/2/12 14/2/12 147/2/12 148/2/12
f 51/1/13 42/1/13 29/1/13 36/1/13
f 166/1/14 39/1/14 57/1/14 48/1/14 23/1/14 165/1/14 161/1/14 162/1/14 163/1/14 164/1/14 167/1/14
f 20/2/15 78/2/15 139/2/15 159/2/15
f 67/2/16 3/2/16 148/2/16 128/2/16
f 5/2/17 13/2/17 145/2/17 146/2/17
f 17/2/18 72/2/18 133/2/18 153/2/18
f 61/2/19 9/2/19 142/2/19 122/2/19
f 7/2/20 12/2/20 143/2/20 144/2/20
f 101/1/21 102/1/21 42/1/21 41/1/21
f 103/1/22 104/1/22 44/1/22 43/1/22
f 105/1/23 106/1/23 46/1/23 45/1/23
f 107/1/24 108/1/24 48/1/24 47/1/24
f 109/1/25 110/1/25 50/1/25 49/1/25
f 111/1/26 112/1/26 52/1/26 51/1/26
f 113/1/27 114/1/27 54/1/27 53/1/27
f 115/1/28 116/1/28 56/1/28 55/1/28
f 117/1/29 118/1/29 58/1/29 57/1/29
f 119/1/30 120/1/30 60/1/30 59/1/30
f 82/1/21 81/1/21 31/1/21 29/1/21
f 84/1/22 83/1/22 32/1/22 27/1/22
f 86/1/23 85/1/23 33/1/23 25/1/23
f 88/1/24 87/1/24 34/1/24 23/1/24
f 90/1/25 89/1/25 35/1/25 21/1/25
f 92/1/26 91/1/26 36/1/26 30/1/26
f 94/1/27 93/1/27 37/1/27 28/1/27
f 96/1/28 95/1/28 38/1/28 26/1/28
f 98/1/29 97/1/29 39/1/29 24/1/29
f 100/1/30 99/1/30 40/1/30 22/1/30
f 95/1/28 115/1/28 55/1/28 38/1/28
f 106/1/23 86/1/23 25/1/23 46/1/23
f 81/1/21 101/1/21 41/1/21 31/1/21
f 120/1/30 100/1/30 22/1/30 60/1/30
f 114/1/27 94/1/27 28/1/27 54/1/27
f 93/1/27 113/1/27 53/1/27 37/1/27
f 99/1/30 119/1/30 59/1/30 40/1/30
f 83/1/22 103/1/22 43/1/22 32/1/22
f 112/1/26 92/1/26 30/1/26 52/1/26
f 85/1/23 105/1/23 45/1/23 33/1/23
f 87/1/24 107/1/24 47/1/24 34/1/24
f 116/1/28 96/1/28 26/1/28 56/1/28
f 89/1/25 109/1/25 49/1/25 35/1/25
f 118/1/29 98/1/29 24/1/29 58/1/29
f 104/1/22 84/1/22 27/1/22 44/1/22
f 110/1/25 90/1/25 21/1/25 50/1/25
f 91/1/26 111/1/26 51/1/26 36/1/26
f 97/1/29 117/1/29 57/1/29 39/1/29
f 102/1/21 82/1/21 29/1/21 42/1/21
f 108/1/24 88/1/24 23/1/24 48/1/24
f 61/2/31 62/2/31 81/2/31 82/2/31
f 63/2/32 64/2/32 83/2/32 84/2/32
f 65/2/33 66/2/33 85/2/33 86/2/33
f 67/2/34 68/2/34 87/2/34 88/2/34
f 69/2/35 70/2/35 89/2/35 90/2/35
f 73/2/36 71/2/36 91/2/36 92/2/36
f 75/2/37 72/2/37 93/2/37 94/2/37
f 77/2/38 74/2/38 95/2/38 96/2/38
f 79/2/39 76/2/39 97/2/39 98/2/39
f 80/2/40 78/2/40 99/2/40 100/2/40
f 11/2/41 9/2/41 102/2/41 101/2/41
f 12/2/42 7/2/42 104/2/42 103/2/42
f 13/2/43 5/2/43 106/2/43 105/2/43
f 14/2/44 3/2/44 108/2/44 107/2/44
f 15/2/45 1/2/45 110/2/45 109/2/45
f 16/2/46 10/2/46 112/2/46 111/2/46
f 17/2/47 8/2/47 114/2/47 113/2/47
f 18/2/48 6/2/48 116/2/48 115/2/48
f 19/2/49 4/2/49 118/2/49 117/2/49
f 20/2/50 2/2/50 120/2/50 119/2/50
f 74/2/51 18/2/51 115/2/51 95/2/51
f 5/2/52 65/2/52 86/2/52 106/2/52
f 62/2/53 11/2/53 101/2/53 81/2/53
f 2/2/54 80/2/54 100/2/54 120/2/54
f 8/2/55 75/2/55 94/2/55 114/2/55
f 72/2/56 17/2/56 113/2/56 93/2/56
f 78/2/57 20/2/57 119/2/57 99/2/57
f 64/2/58 12/2/58 103/2/58 83/2/58
f 10/2/59 73/2/59 92/2/59 112/2/59
f 66/2/60 13/2/60 105/2/60 85/2/60
f 68/2/61 14/2/61 107/2/61 87/2/61
f 6/2/62 77/2/62 96/2/62 116/2/62
f 70/2/63 15/2/63 109/2/63 89/2/63
f 4/2/64 79/2/64 98/2/64 118/2/64
f 7/2/65 63/2/65 84/2/65 104/2/65
f 1/2/66 69/2/66 90/2/66 110/2/66
f 71/2/67 16/2/67 111/2/67 91/2/67
f 76/2/68 19/2/68 117/2/68 97/2/68
f 9/2/69 61/2/69 82/2/69 102/2/69
f 3/2/70 67/2/70 88/2/70 108/2/70
f 154/3/27 153/3/27 133/3/27 134/3/27
f 160/3/30 159/3/30 139/3/30 140/3/30
f 152/3/26 151/3/26 131/3/26 132/3/26
f 158/3/29 157/3/29 137/3/29 138/3/29
f 142/3/21 141/3/21 121/3/21 122/3/21
f 144/3/22 143/3/22 123/3/22 124/3/22
f 146/3/23 145/3/23 125/3/23 126/3/23
f 148/3/24 147/3/24 127/3/24 128/3/24
f 150/3/25 149/3/25 129/3/25 130/3/25
f 156/3/28 155/3/28 135/3/28 136/3/28
f 64/2/71 63/2/71 124/2/71 123/2/71
f 73/2/72 10/2/72 152/2/72 132/2/72
f 10/2/73 16/2/73 151/2/73 152/2/73
f 66/2/74 65/2/74 126/2/74 125/2/74
f 13/2/75 66/2/75 125/2/75 145/2/75
f 8/2/76 17/2/76 153/2/76 154/2/76
f 68/2/77 67/2/77 128/2/77 127/2/77
f 14/2/78 68/2/78 127/2/78 147/2/78
f 6/2/79 18/2/79 155/2/79 156/2/79
f 70/2/80 69/2/80 130/2/80 129/2/80
f 77/2/81 6/2/81 156/2/81 136/2/81
f 4/2/82 19/2/82 157/2/82 158/2/82
f 71/2/83 73/2/83 132/2/83 131/2/83
f 15/2/84 70/2/84 129/2/84 149/2/84
f 2/2/85 20/2/85 159/2/85 160/2/85
f 72/2/86 75/2/86 134/2/86 133/2/86
f 79/2/87 4/2/87 158/2/87 138/2/87
f 18/2/88 74/2/88 135/2/88 155/2/88
f 74/2/89 77/2/89 136/2/89 135/2/89
f 63/2/90 7/2/90 144/2/90 124/2/90
f 65/2/91 5/2/91 146/2/91 126/2/91
f 76/2/92 79/2/92 138/2/92 137/2/92
f 69/2/93 1/2/93 150/2/93 130/2/93
f 11/2/94 62/2/94 121/2/94 141/2/94
f 78/2/95 80/2/95 140/2/95 139/2/95
f 16/2/96 71/2/96 131/2/96 151/2/96
f 80/2/97 2/2/97 160/2/97 140/2/97
f 9/2/98 11/2/98 141/2/98 142/2/98
f 19/2/99 76/2/99 137/2/99 157/2/99
f 75/2/100 8/2/100 154/2/100 134/2/100
f 169/4/101 170/4/102 183/4/101 182/4/102
f 180/5/101 175/5/102 227/5/101 194/5/102
f 181/4/101 177/4/103 226/4/101 224/4/102
f 179/4/101 181/4/102 224/4/101 225/4/102
f 172/4/101 168/4/102 187/4/101 188/4/102
f 168/4/101 169/4/102 182/4/101 187/4/103
f 163/6/104 162/6/104 181/6/104 179/6/104
f 162/6/105 161/6/105 177/6/105 181/6/105
f 166/6/106 167/6/106 175/6/106 180/6/106
f 164/6/107 163/6/107 179/6/107 176/6/107
f 161/6/108 165/6/108 178/6/108 177/6/108
f 167/6/109 164/6/109 176/6/109 175/6/109
f 190/7/110 188/7/110 208/7/110 209/7/110 212/7/110 213/7/110
f 219/7/108 212/7/108 209/7/108 206/7/108
f 217/7/109 210/7/109 201/7/109 203/7/109
f 227/7/111 228/7/111 211/7/111 216/7/111
f 221/7/106 217/7/106 203/7/106 204/7/106
f 194/7/112 227/7/112 216/7/112 220/7/112
f 176/4/101 179/4/102 225/4/113 228/4/102
f 170/4/113 171/4/102 184/4/101 183/4/102
f 178/4/114 172/4/114 188/4/114 190/4/114
f 177/5/101 178/5/102 190/5/101 226/5/102
f 171/4/115 174/4/102 185/4/101 184/4/103
f 175/4/101 176/4/103 228/4/115 227/4/102
f 174/4/101 173/4/102 186/4/101 185/4/102
f 173/4/114 180/4/114 194/4/114 186/4/114
f 185/7/116 186/7/116 205/7/116 202/7/116
f 225/7/117 224/7/117 222/7/117 215/7/117
f 184/7/118 185/7/118 202/7/118 200/7/118
f 182/7/119 183/7/119 198/7/119 197/7/119
f 183/7/120 184/7/120 200/7/120 198/7/120
f 224/7/121 226/7/121 218/7/121 222/7/121
f 228/7/122 225/7/122 215/7/122 211/7/122
f 188/7/123 187/7/123 207/7/123 208/7/123
f 186/7/124 194/7/124 220/7/124 221/7/124 204/7/124 205/7/124
f 226/7/125 190/7/125 213/7/125 218/7/125
f 214/7/104 223/7/104 196/7/104 199/7/104
f 223/7/105 219/7/105 206/7/105 196/7/105
f 226/7/106 187/7/106 188/7/106 190/7/106
f 187/7/126 226/7/126 224/7/126 182/7/126
f 182/7/127 224/7/127 225/7/127 183/7/127
f 225/7/128 228/7/128 184/7/128 183/7/128
f 228/7/129 227/7/129 185/7/129 184/7/129
f 194/7/108 186/7/108 185/7/108 227/7/108
f 192/8/129 189/8/129 237/8/129 236/8/129
f 197/7/130 198/7/130 199/7/130 196/7/130
f 198/7/131 200/7/131 201/7/131 199/7/131
f 200/7/132 202/7/132 203/7/132 201/7/132
f 204/7/133 203/7/133 202/7/133 205/7/133
f 207/7/134 197/7/134 196/7/134 206/7/134
f 206/7/135 209/7/135 208/7/135 207/7/135
f 187/7/136 182/7/136 197/7/136 207/7/136
f 223/7/137 214/7/137 215/7/137 222/7/137
f 219/7/138 223/7/138 222/7/138 218/7/138
f 217/7/139 221/7/139 220/7/139 216/7/139
f 214/7/140 210/7/140 211/7/140 215/7/140
f 212/7/141 219/7/141 218/7/141 213/7/141
f 210/7/142 217/7/142 216/7/142 211/7/142
f 210/7/107 214/7/107 199/7/107 201/7/107
f 195/8/14 191/8/14 225/8/14 224/8/14
f 193/8/14 195/8/14 224/8/14 226/8/14
f 192/8/14 229/8/14 194/8/14 227/8/14
f 191/8/14 189/8/14 228/8/14 225/8/14
f 231/8/14 193/8/14 226/8/14 190/8/14
f 189/8/14 192/8/14 227/8/14 228/8/14
f 229/8/14 231/8/14 190/8/14 194/8/14
f 233/9/14 235/9/14 232/9/14 230/9/14 236/9/14 237/9/14 234/9/14
f 189/8/128 191/8/128 234/8/128 237/8/128
f 195/8/126 193/8/126 235/8/126 233/8/126
f 231/8/101 229/8/101 230/8/101 232/8/101
f 193/8/106 231/8/106 232/8/106 235/8/106
f 229/8/108 192/8/108 236/8/108 230/8/108
f 191/8/127 195/8/127 233/8/127 234/8/127
