# Blender 4.0.1
# www.blender.org
o Cube
v -0.894001 2.881451 0.500000
v -1.000000 3.000000 -0.500000
v -1.000000 0.000000 -0.500000
v -1.000000 0.915630 -0.500000
v -1.000000 2.084369 -0.500000
v -0.894001 2.084369 0.500000
v -0.894001 0.915630 0.500000
v 0.000000 0.000000 -0.500000
v 0.000000 3.000000 0.500000
v 0.000000 3.000000 -0.500000
v 0.000000 0.000000 0.500000
v 0.000000 0.915630 0.500000
v 0.000000 2.084369 0.500000
v 0.000000 0.915630 -0.500000
v 0.000000 2.084369 -0.500000
v -0.105999 2.881451 0.500000
v -0.105999 2.084369 0.500000
v -0.105999 0.915630 0.500000
v -0.105999 0.915630 0.423960
v -0.894001 0.915630 0.423960
v -0.105999 2.084369 0.423960
v -0.894001 2.084369 0.423960
v -0.105999 0.118549 0.423960
v -0.105999 2.881451 0.423960
v -0.894001 0.118549 0.423960
v -0.894001 2.881451 0.423960
v -0.105999 0.915630 -0.344960
v -0.894001 0.915630 -0.344961
v -0.105999 2.084369 -0.344960
v -0.894001 2.084369 -0.344961
v -0.105999 0.118549 -0.344960
v -0.105999 2.881451 -0.344960
v -0.894001 0.118549 -0.344961
v -0.894001 2.881451 -0.344961
v -1.000000 2.182910 -0.500000
v -0.105999 2.182910 0.500000
v 0.000000 2.200000 -0.500000
v -0.894001 2.182910 0.500000
v 0.000000 2.182910 0.500000
v -0.105999 2.182910 0.423960
v -0.894001 2.182910 0.423960
v -0.105999 2.182910 -0.344960
v -0.894001 2.182910 -0.344961
v -1.000000 1.014136 -0.500000
v 0.000000 1.014136 -0.500000
v -0.105999 1.014136 0.500000
v -0.894001 1.014136 0.500000
v 0.000000 1.014136 0.500000
v -0.105999 1.014136 0.423960
v -0.894001 1.014136 0.423960
v -0.105999 1.014136 -0.344960
v -0.894001 1.014136 -0.344961
v -1.000000 0.915630 0.560156
v -1.000000 0.000000 0.560156
v 0.000000 3.000000 0.560156
v -1.000000 3.000000 0.560156
v -1.000000 2.182910 0.560156
v -1.000000 2.084369 0.560156
v -1.000000 1.014136 0.560156
v 0.000000 0.000000 0.560156
v -0.076772 1.174860 0.560156
v -0.105999 0.915630 0.560156
v -0.105999 0.118549 0.560156
v -0.105999 2.182910 0.560156
v -0.076772 1.357974 0.560156
v -0.894001 0.915630 0.560156
v -0.894001 0.118549 0.560156
v -0.105999 2.881451 0.560156
v -0.894001 2.881451 0.560156
v -0.894001 2.182910 0.560156
v -0.894001 2.084369 0.560156
v -0.894001 1.014136 0.560156
v -0.029227 1.174860 0.560156
v 0.000000 0.915630 0.560156
v 0.000000 2.182910 0.560156
v -0.029227 1.357974 0.560156
v 0.000000 2.084369 0.560156
v -0.105999 2.084369 0.560156
v -0.105999 1.014136 0.560156
v 0.000000 1.014136 0.560156
v -0.029227 1.287639 0.560156
v -0.076772 1.287633 0.560156
v -0.029227 1.357974 0.596403
v -0.076772 1.357974 0.596403
v -0.029227 1.287639 0.596403
v -0.076772 1.287633 0.596403
v -0.029227 1.357974 0.637380
v -0.076772 1.357974 0.637380
v -0.029227 1.287639 0.637380
v -0.076772 1.287633 0.637380
v -0.240525 1.349503 0.596403
v -0.240525 1.296104 0.596403
v -0.240525 1.349503 0.637380
v -0.240525 1.296104 0.637380
v 0.894001 2.881451 0.500000
v 1.000000 3.000000 -0.500000
v 1.000000 0.000000 -0.500000
v 1.000000 0.915630 -0.500000
v 1.000000 2.084369 -0.500000
v 0.894001 2.084369 0.500000
v 0.894001 0.915630 0.500000
v 0.105999 2.881451 0.500000
v 0.105999 2.084369 0.500000
v 0.105999 0.915630 0.500000
v 0.105999 0.915630 0.423960
v 0.894001 0.915630 0.423960
v 0.105999 2.084369 0.423960
v 0.894001 2.084369 0.423960
v 0.105999 0.118549 0.423960
v 0.105999 2.881451 0.423960
v 0.894001 0.118549 0.423960
v 0.894001 2.881451 0.423960
v 0.105999 0.915630 -0.344960
v 0.894001 0.915630 -0.344961
v 0.105999 2.084369 -0.344960
v 0.894001 2.084369 -0.344961
v 0.105999 0.118549 -0.344960
v 0.105999 2.881451 -0.344960
v 0.894001 0.118549 -0.344961
v 0.894001 2.881451 -0.344961
v 1.000000 2.182910 -0.500000
v 0.105999 2.182910 0.500000
v 0.894001 2.182910 0.500000
v 0.105999 2.182910 0.423960
v 0.894001 2.182910 0.423960
v 0.105999 2.182910 -0.344960
v 0.894001 2.182910 -0.344961
v 1.000000 1.014136 -0.500000
v 0.105999 1.014136 0.500000
v 0.894001 1.014136 0.500000
v 0.105999 1.014136 0.423960
v 0.894001 1.014136 0.423960
v 0.105999 1.014136 -0.344960
v 0.894001 1.014136 -0.344961
v 1.000000 0.915630 0.560156
v 1.000000 0.000000 0.560156
v 1.000000 3.000000 0.560156
v 1.000000 2.182910 0.560156
v 1.000000 2.084369 0.560156
v 1.000000 1.014136 0.560156
v 0.076772 1.174860 0.560156
v 0.105999 0.915630 0.560156
v 0.105999 0.118549 0.560156
v 0.105999 2.182910 0.560156
v 0.076772 1.357974 0.560156
v 0.894001 0.915630 0.560156
v 0.894001 0.118549 0.560156
v 0.105999 2.881451 0.560156
v 0.894001 2.881451 0.560156
v 0.894001 2.182910 0.560156
v 0.894001 2.084369 0.560156
v 0.894001 1.014136 0.560156
v 0.029227 1.174860 0.560156
v 0.029227 1.357974 0.560156
v 0.105999 2.084369 0.560156
v 0.105999 1.014136 0.560156
v 0.029227 1.287639 0.560156
v 0.076772 1.287633 0.560156
v 0.029227 1.357974 0.596403
v 0.076772 1.357974 0.596403
v 0.029227 1.287639 0.596403
v 0.076772 1.287633 0.596403
v 0.029227 1.357974 0.637380
v 0.076772 1.357974 0.637380
v 0.029227 1.287639 0.637380
v 0.076772 1.287633 0.637380
v 0.240525 1.349503 0.596403
v 0.240525 1.296104 0.596403
v 0.240525 1.349503 0.637380
v 0.240525 1.296104 0.637380
vn -1.0000 -0.0000 -0.0000
vn -0.0000 -1.0000 -0.0000
vn 1.0000 -0.0000 -0.0000
vn -0.0000 1.0000 -0.0000
vn -0.0000 -0.0000 -1.0000
vn -0.0000 -0.0000 1.0000
vn 0.0001 -1.0000 -0.0000
vn -0.0517 0.9987 -0.0000
vn -0.0517 -0.9987 -0.0000
vn -0.0001 -1.0000 -0.0000
vn 0.0517 0.9987 -0.0000
vn 0.0517 -0.9987 -0.0000
vt 0.953479 0.701946
vt 0.434848 0.960764
vt 0.953480 0.701946
vt 0.000000 0.000000
vt 0.962997 0.703704
vt 0.953480 0.701946
vt 0.953480 0.701946
s 0
f 35/1/1 5/1/1 58/1/1 57/1/1
f 59/1/1 58/1/1 5/1/1 44/1/1
f 35/1/1 57/1/1 56/1/1 2/1/1
f 36/1/1 16/1/1 24/1/1 40/1/1
f 63/1/2 67/1/2 25/1/2 23/1/2
f 38/1/3 6/1/3 22/1/3 41/1/3
f 2/1/4 56/1/4 55/1/4 9/1/4 10/1/4
f 44/1/5 5/1/5 15/1/5 45/1/5
f 3/1/5 4/1/5 14/1/5 8/1/5
f 35/1/5 2/1/5 10/1/5 37/1/5
f 12/1/3 48/1/3 80/1/3 74/1/3
f 4/1/1 53/1/1 59/1/1 44/1/1
f 36/1/1 17/1/1 78/1/1 64/1/1
f 7/1/3 47/1/3 72/1/3 66/1/3
f 25/2/2 33/2/2 31/2/2 23/2/2
f 49/2/1 21/2/1 29/2/1 51/2/1
f 40/2/1 24/2/1 32/2/1 42/2/1
f 46/1/1 17/1/1 21/1/1 49/1/1
f 47/1/3 7/1/3 20/1/3 50/1/3
f 16/1/2 1/1/2 26/1/2 24/1/2
f 7/1/1 20/1/1 25/1/1 67/1/1 66/1/1
f 42/2/6 32/2/6 34/2/6 43/2/6
f 31/2/5 33/2/5 28/2/5 27/2/5
f 51/2/6 29/2/6 30/2/6 52/2/6
f 41/1/1 43/1/1 30/1/1 22/1/1
f 20/2/1 28/2/1 33/2/1 25/2/1
f 23/2/3 31/2/3 27/2/3 19/2/3
f 50/1/1 52/1/1 28/1/1 20/1/1
f 24/1/2 26/1/2 34/1/2 32/1/2
f 26/2/3 41/2/3 43/2/3 34/2/3
f 29/1/5 30/1/5 43/1/5 42/1/5
f 21/1/3 29/1/3 42/1/3 40/1/3
f 6/1/3 38/1/3 70/1/3 71/1/3
f 5/1/5 35/1/5 37/1/5 15/1/5
f 1/1/3 38/1/3 41/1/3 26/1/3
f 17/1/1 36/1/1 40/1/1 21/1/1
f 40/2/4 42/2/4 43/2/4 41/2/4
f 21/2/6 40/2/6 41/2/6 22/2/6
f 30/2/2 29/2/2 21/2/2 22/2/2
f 22/2/3 50/2/3 52/2/3 30/2/3
f 27/1/5 28/1/5 52/1/5 51/1/5
f 6/1/3 47/1/3 50/1/3 22/1/3
f 18/1/1 46/1/1 49/1/1 19/1/1
f 19/1/3 27/1/3 51/1/3 49/1/3
f 46/1/1 18/1/1 62/1/1 79/1/1
f 39/1/3 9/1/3 55/1/3 75/1/3
f 4/1/5 44/1/5 45/1/5 14/1/5
f 11/1/2 60/1/2 54/1/2 3/1/2 8/1/2
f 50/2/4 49/2/4 51/2/4 52/2/4
f 28/2/2 27/2/2 19/2/2 20/2/2
f 20/2/6 19/2/6 49/2/6 50/2/6
f 67/1/6 66/1/6 53/1/6 54/1/6
f 69/1/6 68/1/6 55/1/6 56/1/6
f 70/1/6 69/1/6 56/1/6 57/1/6
f 72/1/6 71/1/6 58/1/6 59/1/6
f 63/1/6 67/1/6 54/1/6 60/1/6
f 79/1/6 62/1/6 74/1/6 80/1/6
f 62/1/6 63/1/6 60/1/6 74/1/6
f 64/1/6 78/1/6 77/1/6 75/1/6
f 68/1/6 64/1/6 75/1/6 55/1/6
f 71/1/6 70/1/6 57/1/6 58/1/6
f 76/1/4 65/3/4 84/3/4 83/1/4
f 66/1/6 72/1/6 59/1/6 53/1/6
f 17/1/1 46/1/1 79/1/1 78/1/1
f 16/1/1 36/1/1 64/1/1 68/1/1
f 11/1/3 12/1/3 74/1/3 60/1/3
f 47/1/3 6/1/3 71/1/3 72/1/3
f 13/1/3 39/1/3 75/1/3 77/1/3
f 48/1/3 13/1/3 77/1/3 80/1/3
f 38/1/3 1/1/3 69/1/3 70/1/3
f 1/1/2 16/1/2 68/1/2 69/1/2
f 63/1/3 23/1/3 19/1/3 18/1/3 62/1/3
f 62/4/4 18/4/4 19/4/4 20/4/4 7/4/4 66/4/4
f 67/5/6 63/5/6 62/5/6 66/5/6
f 65/3/6 76/1/6 77/1/6 78/1/6
f 61/6/6 82/3/6 65/3/6 78/1/6 79/1/6
f 76/1/6 81/7/6 73/7/6 80/1/6 77/1/6
f 73/7/6 61/6/6 79/1/6 80/1/6
f 84/3/5 86/3/5 92/3/5 91/3/5
f 81/7/6 82/3/6 61/6/6 73/7/6
f 65/3/1 82/3/1 86/3/1 84/3/1
f 82/3/7 81/7/7 85/7/7 86/3/7
f 81/7/3 76/1/3 83/1/3 85/7/3
f 88/3/6 90/3/6 89/7/6 87/1/6
f 83/1/4 84/3/4 88/3/4 87/1/4
f 86/3/7 85/7/7 89/7/7 90/3/7
f 85/7/3 83/1/3 87/1/3 89/7/3
f 91/3/1 92/3/1 94/3/1 93/3/1
f 88/3/8 84/3/8 91/3/8 93/3/8
f 86/3/9 90/3/9 94/3/9 92/3/9
f 90/3/6 88/3/6 93/3/6 94/3/6
f 3/1/1 54/1/1 53/1/1 4/1/1
f 121/1/3 138/1/3 139/1/3 99/1/3
f 140/1/3 128/1/3 99/1/3 139/1/3
f 121/1/3 96/1/3 137/1/3 138/1/3
f 122/1/3 124/1/3 110/1/3 102/1/3
f 143/1/2 109/1/2 111/1/2 147/1/2
f 123/1/1 125/1/1 108/1/1 100/1/1
f 96/1/4 10/1/4 9/1/4 55/1/4 137/1/4
f 128/1/5 45/1/5 15/1/5 99/1/5
f 97/1/5 8/1/5 14/1/5 98/1/5
f 121/1/5 37/1/5 10/1/5 96/1/5
f 98/1/3 128/1/3 140/1/3 135/1/3
f 122/1/3 144/1/3 155/1/3 103/1/3
f 101/1/1 146/1/1 152/1/1 130/1/1
f 111/2/2 109/2/2 117/2/2 119/2/2
f 131/2/3 133/2/3 115/2/3 107/2/3
f 124/2/3 126/2/3 118/2/3 110/2/3
f 129/1/3 131/1/3 107/1/3 103/1/3
f 130/1/1 132/1/1 106/1/1 101/1/1
f 102/1/2 110/1/2 112/1/2 95/1/2
f 101/1/3 146/1/3 147/1/3 111/1/3 106/1/3
f 126/2/6 127/2/6 120/2/6 118/2/6
f 117/2/5 113/2/5 114/2/5 119/2/5
f 133/2/6 134/2/6 116/2/6 115/2/6
f 125/1/3 108/1/3 116/1/3 127/1/3
f 106/2/3 111/2/3 119/2/3 114/2/3
f 109/2/1 105/2/1 113/2/1 117/2/1
f 132/1/3 106/1/3 114/1/3 134/1/3
f 110/1/2 118/1/2 120/1/2 112/1/2
f 112/2/1 120/2/1 127/2/1 125/2/1
f 115/1/5 126/1/5 127/1/5 116/1/5
f 107/1/1 124/1/1 126/1/1 115/1/1
f 100/1/1 151/1/1 150/1/1 123/1/1
f 99/1/5 15/1/5 37/1/5 121/1/5
f 95/1/1 112/1/1 125/1/1 123/1/1
f 103/1/3 107/1/3 124/1/3 122/1/3
f 124/2/4 125/2/4 127/2/4 126/2/4
f 107/2/6 108/2/6 125/2/6 124/2/6
f 116/2/2 108/2/2 107/2/2 115/2/2
f 108/2/1 116/2/1 134/2/1 132/2/1
f 113/1/5 133/1/5 134/1/5 114/1/5
f 100/1/1 108/1/1 132/1/1 130/1/1
f 104/1/3 105/1/3 131/1/3 129/1/3
f 105/1/1 131/1/1 133/1/1 113/1/1
f 129/1/3 156/1/3 142/1/3 104/1/3
f 98/1/5 14/1/5 45/1/5 128/1/5
f 11/1/2 8/1/2 97/1/2 136/1/2 60/1/2
f 132/2/4 134/2/4 133/2/4 131/2/4
f 114/2/2 106/2/2 105/2/2 113/2/2
f 106/2/6 132/2/6 131/2/6 105/2/6
f 147/1/6 136/1/6 135/1/6 146/1/6
f 149/1/6 137/1/6 55/1/6 148/1/6
f 150/1/6 138/1/6 137/1/6 149/1/6
f 152/1/6 140/1/6 139/1/6 151/1/6
f 143/1/6 60/1/6 136/1/6 147/1/6
f 156/1/6 80/1/6 74/1/6 142/1/6
f 142/1/6 74/1/6 60/1/6 143/1/6
f 144/1/6 75/1/6 77/1/6 155/1/6
f 148/1/6 55/1/6 75/1/6 144/1/6
f 151/1/6 139/1/6 138/1/6 150/1/6
f 154/1/4 159/1/4 160/3/4 145/3/4
f 146/1/6 135/1/6 140/1/6 152/1/6
f 103/1/3 155/1/3 156/1/3 129/1/3
f 102/1/3 148/1/3 144/1/3 122/1/3
f 130/1/1 152/1/1 151/1/1 100/1/1
f 123/1/1 150/1/1 149/1/1 95/1/1
f 95/1/2 149/1/2 148/1/2 102/1/2
f 143/1/1 142/1/1 104/1/1 105/1/1 109/1/1
f 142/4/4 146/4/4 101/4/4 106/4/4 105/4/4 104/4/4
f 147/5/6 146/5/6 142/5/6 143/5/6
f 145/3/6 155/1/6 77/1/6 154/1/6
f 141/6/6 156/1/6 155/1/6 145/3/6 158/3/6
f 154/1/6 77/1/6 80/1/6 153/7/6 157/7/6
f 153/7/6 80/1/6 156/1/6 141/6/6
f 160/3/5 167/3/5 168/3/5 162/3/5
f 157/7/6 153/7/6 141/6/6 158/3/6
f 145/3/3 160/3/3 162/3/3 158/3/3
f 158/3/10 162/3/10 161/7/10 157/7/10
f 157/7/1 161/7/1 159/1/1 154/1/1
f 164/3/6 163/1/6 165/7/6 166/3/6
f 159/1/4 163/1/4 164/3/4 160/3/4
f 162/3/10 166/3/10 165/7/10 161/7/10
f 161/7/1 165/7/1 163/1/1 159/1/1
f 167/3/3 169/3/3 170/3/3 168/3/3
f 164/3/11 169/3/11 167/3/11 160/3/11
f 162/3/12 168/3/12 170/3/12 166/3/12
f 166/3/6 170/3/6 169/3/6 164/3/6
f 97/1/3 98/1/3 135/1/3 136/1/3
