# Blender 4.0.1
# www.blender.org
o Cube
v 0.500000 0.023151 -0.953698
v -0.500000 0.000000 -1.000000
v 0.500000 0.917293 -0.953698
v -0.500000 0.940444 -1.000000
v -0.461819 0.000000 -1.000000
v -0.461819 0.940444 -1.000000
v -0.500000 0.000000 0.000000
v -0.527297 1.000000 0.000000
v 0.500000 0.000000 0.000000
v 0.500000 0.940444 0.000000
v -0.500000 0.940444 0.000000
v -0.461819 0.000000 0.000000
v -0.461819 1.000000 0.000000
v 0.500000 0.703092 -0.953698
v 0.500000 0.613530 -0.953698
v 0.500000 0.326914 -0.953698
v 0.500000 0.237352 -0.953698
v -0.500000 0.679941 -1.000000
v -0.500000 0.636680 -1.000000
v -0.500000 0.303763 -1.000000
v -0.500000 0.260503 -1.000000
v -0.461819 0.679941 -1.000000
v -0.461819 0.636680 -1.000000
v -0.461819 0.303763 -1.000000
v -0.461819 0.260503 -1.000000
v -0.500000 0.679941 0.000000
v -0.500000 0.636680 0.000000
v -0.500000 0.303763 0.000000
v -0.500000 0.260503 0.000000
v 0.500000 0.679941 0.000000
v 0.500000 0.636680 0.000000
v 0.500000 0.303763 0.000000
v 0.500000 0.260503 0.000000
v 0.500000 0.260503 -1.000000
v 0.500000 0.000000 -1.000000
v 0.500000 0.940444 -1.000000
v 0.500000 0.023151 -0.046302
v 0.500000 0.237352 -0.046302
v 0.500000 0.917293 -0.046302
v 0.500000 0.679941 -1.000000
v 0.500000 0.636680 -1.000000
v 0.500000 0.303763 -1.000000
v 0.500000 0.703092 -0.046302
v 0.500000 0.326914 -0.046302
v 0.500000 0.613530 -0.046302
v 0.533013 0.237352 -0.046302
v 0.533013 0.023151 -0.046302
v 0.533013 0.917293 -0.046302
v 0.533013 0.703092 -0.046302
v 0.533013 0.613530 -0.046302
v 0.533013 0.326914 -0.046302
v 0.533013 0.237352 -0.953698
v 0.533013 0.023151 -0.953698
v 0.533013 0.917293 -0.953698
v 0.533013 0.703092 -0.953698
v 0.533013 0.613530 -0.953698
v 0.533013 0.326914 -0.953698
v 0.527297 0.948816 -1.047202
v 0.518925 0.940444 -1.030576
v 0.524845 0.942896 -1.042332
v -0.527297 1.000000 -1.030576
v -0.518925 1.000000 -1.047202
v -0.524845 1.000000 -1.042332
v 0.518925 1.000000 -1.030576
v 0.527297 0.991628 -1.047202
v 0.524845 0.997548 -1.042332
v -0.518925 0.948816 -1.047202
v -0.518925 0.940444 -1.030576
v -0.527297 0.948816 -1.030576
v -0.518925 0.942896 -1.042332
v -0.523758 0.943982 -1.040175
v -0.524845 0.942896 -1.030576
v -0.524845 0.948816 -1.042332
v -0.461819 0.940444 -1.030576
v -0.461819 0.948816 -1.047202
v -0.461819 0.942896 -1.042332
v -0.470191 0.991628 -1.047202
v -0.461819 1.000000 -1.030576
v -0.464271 0.997548 -1.042332
v 0.527297 0.991628 0.000000
v 0.518925 1.000000 0.000000
v 0.524845 0.997548 0.000000
v -0.527297 0.948816 0.000000
v -0.518925 0.940444 0.000000
v -0.524845 0.942896 0.000000
v 0.518925 0.940444 0.000000
v 0.527297 0.948816 0.000000
v 0.524845 0.942896 0.000000
v -0.527297 1.059770 -1.030576
v -0.518925 1.068142 -1.047202
v -0.524845 1.065690 -1.042332
v -0.518925 1.068142 0.000000
v -0.527297 1.059770 0.000000
v -0.524845 1.065690 0.000000
v -0.461819 1.059770 -1.030576
v -0.470191 1.068142 -1.047202
v -0.464271 1.065690 -1.042332
v -0.461819 1.059770 0.000000
v -0.470191 1.068142 0.000000
v -0.464271 1.065690 0.000000
v 0.500000 0.023151 0.953698
v -0.500000 0.000000 1.000000
v 0.500000 0.917293 0.953698
v -0.500000 0.940444 1.000000
v -0.461819 0.000000 1.000000
v -0.461819 0.940444 1.000000
v 0.500000 0.703092 0.953698
v 0.500000 0.613530 0.953698
v 0.500000 0.326914 0.953698
v 0.500000 0.237352 0.953698
v -0.500000 0.679941 1.000000
v -0.500000 0.636680 1.000000
v -0.500000 0.303763 1.000000
v -0.500000 0.260503 1.000000
v -0.461819 0.679941 1.000000
v -0.461819 0.636680 1.000000
v -0.461819 0.303763 1.000000
v -0.461819 0.260503 1.000000
v 0.500000 0.260503 1.000000
v 0.500000 0.000000 1.000000
v 0.500000 0.940444 1.000000
v 0.500000 0.023151 0.046302
v 0.500000 0.237352 0.046302
v 0.500000 0.917293 0.046302
v 0.500000 0.679941 1.000000
v 0.500000 0.636680 1.000000
v 0.500000 0.303763 1.000000
v 0.500000 0.703092 0.046302
v 0.500000 0.326914 0.046302
v 0.500000 0.613530 0.046302
v 0.533013 0.237352 0.046302
v 0.533013 0.023151 0.046302
v 0.533013 0.917293 0.046302
v 0.533013 0.703092 0.046302
v 0.533013 0.613530 0.046302
v 0.533013 0.326914 0.046302
v 0.533013 0.237352 0.953698
v 0.533013 0.023151 0.953698
v 0.533013 0.917293 0.953698
v 0.533013 0.703092 0.953698
v 0.533013 0.613530 0.953698
v 0.533013 0.326914 0.953698
v 0.527297 0.948816 1.047202
v 0.518925 0.940444 1.030576
v 0.524845 0.942896 1.042332
v -0.527297 1.000000 1.030576
v -0.518925 1.000000 1.047202
v -0.524845 1.000000 1.042332
v 0.518925 1.000000 1.030576
v 0.527297 0.991628 1.047202
v 0.524845 0.997548 1.042332
v -0.518925 0.948816 1.047202
v -0.518925 0.940444 1.030576
v -0.527297 0.948816 1.030576
v -0.518925 0.942896 1.042332
v -0.523758 0.943982 1.040175
v -0.524845 0.942896 1.030576
v -0.524845 0.948816 1.042332
v -0.461819 0.940444 1.030576
v -0.461819 0.948816 1.047202
v -0.461819 0.942896 1.042332
v -0.470191 0.991628 1.047202
v -0.461819 1.000000 1.030576
v -0.464271 0.997548 1.042332
v -0.527297 1.059770 1.030576
v -0.518925 1.068142 1.047202
v -0.524845 1.065690 1.042332
v -0.461819 1.059770 1.030576
v -0.470191 1.068142 1.047202
v -0.464271 1.065690 1.042332
vn -1.0000 -0.0000 -0.0000
vn -0.0000 -0.0000 -1.0000
vn -0.0000 -1.0000 -0.0000
vn 1.0000 -0.0000 -0.0000
vn -0.0000 1.0000 -0.0000
vn -0.0000 -0.0000 1.0000
vn -0.5069 -0.5069 -0.6973
vn -0.3387 -0.9253 -0.1705
vn -0.9253 -0.3387 -0.1705
vn -0.6353 -0.0000 -0.7723
vn -0.9789 -0.0000 -0.2042
vn -0.0000 -0.6353 -0.7723
vn -0.0000 -0.9789 -0.2042
vn -0.0000 0.9789 -0.2042
vn -0.0000 0.6353 -0.7723
vn -0.9239 -0.3827 -0.0000
vn -0.3827 -0.9239 -0.0000
vn 0.6353 -0.0000 -0.7723
vn 0.9789 -0.0000 -0.2042
vn 0.3827 0.9239 -0.0000
vn 0.9239 0.3827 -0.0000
vn 0.9239 -0.3827 -0.0000
vn 0.3827 -0.9239 -0.0000
vn -0.3827 0.9239 -0.0000
vn -0.9239 0.3827 -0.0000
vn -0.5069 -0.5069 0.6973
vn -0.3387 -0.9253 0.1705
vn -0.9253 -0.3387 0.1705
vn -0.6353 -0.0000 0.7723
vn -0.9789 -0.0000 0.2042
vn -0.0000 -0.6353 0.7723
vn -0.0000 -0.9789 0.2042
vn -0.0000 0.9789 0.2042
vn -0.0000 0.6353 0.7723
vn 0.6353 -0.0000 0.7723
vn 0.9789 -0.0000 0.2042
vt 0.957377 0.275132
vt 0.957260 0.700468
vt 0.959133 0.459909
vt 0.186600 0.603885
vt 0.183858 0.603884
vt 0.955610 0.702358
vt 0.958391 0.700468
vt 0.956694 0.702065
s 0
f 61/1/1 8/1/1 93/1/1 89/1/1
f 67/1/2 62/1/2 77/1/2 75/1/2
f 4/1/3 11/1/3 84/1/3 68/1/3
f 26/2/1 11/2/1 4/2/1 18/2/1
f 22/2/2 6/2/2 36/2/2 40/2/2
f 78/1/4 95/1/4 98/1/4 13/1/4
f 36/1/3 6/1/3 74/1/3 59/1/3
f 77/1/2 62/1/2 90/1/2 96/1/2
f 10/1/3 36/1/3 59/1/3 86/1/3
f 18/2/2 4/2/2 6/2/2 22/2/2
f 83/1/1 8/1/1 61/1/1 69/1/1
f 2/1/3 5/1/3 12/1/3 7/1/3
f 6/1/3 4/1/3 68/1/3 74/1/3
f 75/1/2 77/1/2 65/1/2 58/1/2
f 96/1/5 90/1/5 92/1/5 99/1/5
f 14/3/2 3/3/2 54/3/2 55/3/2
f 5/1/3 35/1/3 9/1/3 12/1/3
f 39/3/6 43/3/6 49/3/6 48/3/6
f 34/4/4 42/4/4 32/4/4 33/4/4
f 1/3/2 17/3/2 52/3/2 53/3/2
f 41/4/4 40/4/4 30/4/4 31/4/4
f 2/2/2 21/2/2 25/2/2 5/2/2
f 21/5/2 20/5/2 24/5/2 25/5/2
f 20/2/2 19/2/2 23/2/2 24/2/2
f 19/5/2 18/5/2 22/5/2 23/5/2
f 5/2/2 25/2/2 34/2/2 35/2/2
f 25/5/2 24/5/2 42/5/2 34/5/2
f 24/2/2 23/2/2 41/2/2 42/2/2
f 23/5/2 22/5/2 40/5/2 41/5/2
f 7/2/1 29/2/1 21/2/1 2/2/1
f 29/5/1 28/5/1 20/5/1 21/5/1
f 28/2/1 27/2/1 19/2/1 20/2/1
f 27/5/1 26/5/1 18/5/1 19/5/1
f 17/6/4 1/6/4 35/6/4 34/6/4
f 1/7/4 37/7/4 9/7/4 35/7/4
f 39/7/4 3/7/4 36/7/4 10/7/4
f 37/7/4 38/7/4 33/7/4 9/7/4
f 3/7/4 14/7/4 40/7/4 36/7/4
f 15/8/4 16/8/4 42/8/4 41/8/4
f 43/7/4 39/7/4 10/7/4 30/7/4
f 44/7/4 45/7/4 31/7/4 32/7/4
f 38/7/4 17/7/4 34/7/4 33/7/4
f 16/7/4 44/7/4 32/7/4 42/7/4
f 45/7/4 15/7/4 41/7/4 31/7/4
f 14/7/4 43/7/4 30/7/4 40/7/4
f 55/3/4 54/3/4 48/3/4 49/3/4
f 53/3/4 52/3/4 46/3/4 47/3/4
f 57/3/4 56/3/4 50/3/4 51/3/4
f 43/3/3 14/3/3 55/3/3 49/3/3
f 37/3/3 1/3/3 53/3/3 47/3/3
f 17/3/5 38/3/5 46/3/5 52/3/5
f 16/3/2 15/3/2 56/3/2 57/3/2
f 3/3/5 39/3/5 48/3/5 54/3/5
f 44/3/3 16/3/3 57/3/3 51/3/3
f 45/3/6 44/3/6 51/3/6 50/3/6
f 15/3/5 45/3/5 50/3/5 56/3/5
f 38/3/6 37/3/6 47/3/6 46/3/6
f 78/1/5 13/1/5 81/1/5 64/1/5
f 67/1/7 70/1/7 71/1/7 73/1/7
f 68/1/8 72/1/8 71/1/8 70/1/8
f 69/1/9 73/1/9 71/1/9 72/1/9
f 62/1/10 67/1/10 73/1/10 63/1/10
f 63/1/11 73/1/11 69/1/11 61/1/11
f 75/1/12 58/1/12 60/1/12 76/1/12
f 76/1/13 60/1/13 59/1/13 74/1/13
f 78/1/14 64/1/14 66/1/14 79/1/14
f 79/1/15 66/1/15 65/1/15 77/1/15
f 83/1/16 69/1/16 72/1/16 85/1/16
f 85/1/17 72/1/17 68/1/17 84/1/17
f 77/1/18 96/1/18 97/1/18 79/1/18
f 79/1/19 97/1/19 95/1/19 78/1/19
f 67/1/12 75/1/12 76/1/12 70/1/12
f 70/1/13 76/1/13 74/1/13 68/1/13
f 64/1/20 81/1/20 82/1/20 66/1/20
f 66/1/21 82/1/21 80/1/21 65/1/21
f 58/1/22 87/1/22 88/1/22 60/1/22
f 60/1/23 88/1/23 86/1/23 59/1/23
f 61/1/11 89/1/11 91/1/11 63/1/11
f 63/1/10 91/1/10 90/1/10 62/1/10
f 92/1/24 90/1/24 91/1/24 94/1/24
f 94/1/25 91/1/25 89/1/25 93/1/25
f 96/1/20 99/1/20 100/1/20 97/1/20
f 97/1/21 100/1/21 98/1/21 95/1/21
f 58/1/4 65/1/4 80/1/4 87/1/4
f 146/1/1 165/1/1 93/1/1 8/1/1
f 152/1/6 160/1/6 162/1/6 147/1/6
f 104/1/3 153/1/3 84/1/3 11/1/3
f 26/2/1 111/2/1 104/2/1 11/2/1
f 115/2/6 125/2/6 121/2/6 106/2/6
f 163/1/4 13/1/4 98/1/4 168/1/4
f 121/1/3 144/1/3 159/1/3 106/1/3
f 162/1/6 169/1/6 166/1/6 147/1/6
f 10/1/3 86/1/3 144/1/3 121/1/3
f 111/2/6 115/2/6 106/2/6 104/2/6
f 83/1/1 154/1/1 146/1/1 8/1/1
f 102/1/3 7/1/3 12/1/3 105/1/3
f 106/1/3 159/1/3 153/1/3 104/1/3
f 160/1/6 143/1/6 150/1/6 162/1/6
f 169/1/5 99/1/5 92/1/5 166/1/5
f 107/3/6 140/3/6 139/3/6 103/3/6
f 105/1/3 12/1/3 9/1/3 120/1/3
f 124/3/2 133/3/2 134/3/2 128/3/2
f 119/4/4 33/4/4 32/4/4 127/4/4
f 101/3/6 138/3/6 137/3/6 110/3/6
f 126/4/4 31/4/4 30/4/4 125/4/4
f 102/2/6 105/2/6 118/2/6 114/2/6
f 114/5/6 118/5/6 117/5/6 113/5/6
f 113/2/6 117/2/6 116/2/6 112/2/6
f 112/5/6 116/5/6 115/5/6 111/5/6
f 105/2/6 120/2/6 119/2/6 118/2/6
f 118/5/6 119/5/6 127/5/6 117/5/6
f 117/2/6 127/2/6 126/2/6 116/2/6
f 116/5/6 126/5/6 125/5/6 115/5/6
f 7/2/1 102/2/1 114/2/1 29/2/1
f 29/5/1 114/5/1 113/5/1 28/5/1
f 28/2/1 113/2/1 112/2/1 27/2/1
f 27/5/1 112/5/1 111/5/1 26/5/1
f 110/7/4 119/7/4 120/7/4 101/7/4
f 101/7/4 120/7/4 9/7/4 122/7/4
f 124/7/4 10/7/4 121/7/4 103/7/4
f 122/7/4 9/7/4 33/7/4 123/7/4
f 103/7/4 121/7/4 125/7/4 107/7/4
f 108/7/4 126/7/4 127/7/4 109/7/4
f 128/7/4 30/7/4 10/7/4 124/7/4
f 129/7/4 32/7/4 31/7/4 130/7/4
f 123/7/4 33/7/4 119/7/4 110/7/4
f 109/7/4 127/7/4 32/7/4 129/7/4
f 130/7/4 31/7/4 126/7/4 108/7/4
f 107/7/4 125/7/4 30/7/4 128/7/4
f 140/3/4 134/3/4 133/3/4 139/3/4
f 138/3/4 132/3/4 131/3/4 137/3/4
f 142/3/4 136/3/4 135/3/4 141/3/4
f 128/3/3 134/3/3 140/3/3 107/3/3
f 122/3/3 132/3/3 138/3/3 101/3/3
f 110/3/5 137/3/5 131/3/5 123/3/5
f 109/3/6 142/3/6 141/3/6 108/3/6
f 103/3/5 139/3/5 133/3/5 124/3/5
f 129/3/3 136/3/3 142/3/3 109/3/3
f 130/3/2 135/3/2 136/3/2 129/3/2
f 108/3/5 141/3/5 135/3/5 130/3/5
f 123/3/2 131/3/2 132/3/2 122/3/2
f 163/1/5 149/1/5 81/1/5 13/1/5
f 152/1/26 158/1/26 156/1/26 155/1/26
f 153/1/27 155/1/27 156/1/27 157/1/27
f 154/1/28 157/1/28 156/1/28 158/1/28
f 147/1/29 148/1/29 158/1/29 152/1/29
f 148/1/30 146/1/30 154/1/30 158/1/30
f 160/1/31 161/1/31 145/1/31 143/1/31
f 161/1/32 159/1/32 144/1/32 145/1/32
f 163/1/33 164/1/33 151/1/33 149/1/33
f 164/1/34 162/1/34 150/1/34 151/1/34
f 83/1/16 85/1/16 157/1/16 154/1/16
f 85/1/17 84/1/17 153/1/17 157/1/17
f 162/1/35 164/1/35 170/1/35 169/1/35
f 164/1/36 163/1/36 168/1/36 170/1/36
f 152/1/31 155/1/31 161/1/31 160/1/31
f 155/1/32 153/1/32 159/1/32 161/1/32
f 149/1/20 151/1/20 82/1/20 81/1/20
f 151/1/21 150/1/21 80/1/21 82/1/21
f 143/1/22 145/1/22 88/1/22 87/1/22
f 145/1/23 144/1/23 86/1/23 88/1/23
f 146/1/30 148/1/30 167/1/30 165/1/30
f 148/1/29 147/1/29 166/1/29 167/1/29
f 92/1/24 94/1/24 167/1/24 166/1/24
f 94/1/25 93/1/25 165/1/25 167/1/25
f 169/1/20 170/1/20 100/1/20 99/1/20
f 170/1/21 168/1/21 98/1/21 100/1/21
f 143/1/4 87/1/4 80/1/4 150/1/4
