# Blender 4.0.1
# www.blender.org
o Cube
v -2.677611 0.000000 20.000000
v 2.660066 0.000000 20.000000
v 12.486807 3.323697 -20.000000
v -12.486807 3.323697 20.000000
v 12.486807 3.323697 20.000000
v -12.486807 3.323697 -20.000000
v 2.660066 3.323697 20.000000
v -2.677611 3.323697 20.000000
v -2.281514 0.000000 20.000000
v 2.263970 0.000000 20.000000
v -2.281514 4.196348 20.000000
v 2.263970 4.196348 20.000000
v -12.486807 4.119398 20.000000
v 2.660066 4.119398 20.000000
v -2.677611 4.119398 20.000000
v 12.486807 4.119398 -20.000000
v 12.486807 4.119398 20.000000
v -12.486807 4.119398 -20.000000
v 2.263970 4.856637 20.000000
v -2.281514 4.856637 20.000000
v 2.263970 0.000000 18.864082
v 2.660066 0.000000 18.864082
v 2.660066 3.323697 18.864082
v -2.677611 0.000000 18.864082
v -2.677611 3.323697 18.864082
v 2.263970 4.196348 18.864082
v -2.281514 0.000000 18.864082
v -2.281514 4.196348 18.864082
v 2.660066 4.119398 18.864082
v -2.677611 4.119398 18.864082
v 2.263970 4.856637 18.864082
v -2.281514 4.856637 18.864082
v 12.486807 8.988951 -20.000000
v 12.104718 9.294945 -19.694006
v 12.104718 0.000000 -19.694006
v 12.486807 0.305994 -20.000000
v 12.104718 9.294945 19.694006
v 12.486807 8.988951 20.000000
v 12.104718 0.000000 20.000000
v 12.486807 0.305994 20.000000
v -12.104718 9.294945 -19.694006
v -12.486807 8.988951 -20.000000
v -12.104718 0.000000 -19.694006
v -12.486807 0.305994 -20.000000
v -12.104718 9.294945 19.694006
v -12.486807 8.988951 20.000000
v -12.486807 0.305994 20.000000
v -12.104718 0.000000 20.000000
vn 1.0000 -0.0000 -0.0000
vn -0.0000 -0.0000 1.0000
vn -0.8809 0.4733 -0.0000
vn -1.0000 -0.0000 -0.0000
vn -0.0000 1.0000 -0.0000
vn -0.0000 -0.0000 -1.0000
vn -0.0000 -1.0000 -0.0000
vn 0.8809 0.4733 -0.0000
vn 0.6251 0.7805 -0.0000
vn -0.6251 -0.7805 -0.0000
vn 0.6251 -0.7805 -0.0000
vn -0.6251 0.7805 -0.0000
vn -0.0000 0.7071 0.7071
vn -0.0000 -0.7071 -0.7071
vn -0.0000 -0.7071 0.7071
vt 0.966745 0.634921
vt 0.168618 0.613757
vt 0.966745 0.634921
vt 0.966745 0.634921
vt 0.966745 0.634921
vt 0.966745 0.634921
vt 0.146136 0.624339
vt 0.966745 0.634921
s 0
f 47/1/1 44/1/1 6/1/1 4/1/1
f 3/1/2 6/1/2 44/1/2 36/1/2
f 15/2/3 20/2/3 32/2/3 30/2/3
f 13/1/1 18/1/1 42/3/1 46/4/1
f 16/1/4 17/1/4 38/3/4 33/4/4
f 43/5/5 48/1/5 1/1/5 9/1/5 10/1/5 2/1/5 39/4/5 35/6/5
f 1/1/6 48/4/6 47/1/6 4/1/6 8/1/6
f 36/1/4 40/1/4 5/1/4 3/1/4
f 12/2/7 11/2/7 28/2/7 26/2/7
f 42/4/2 18/1/2 16/1/2 33/3/2
f 39/1/6 2/1/6 7/1/6 5/1/6 40/1/6
f 38/4/6 17/1/6 14/1/6 19/1/6 20/1/6 15/1/6 13/1/6 46/3/6
f 6/2/2 3/2/2 16/2/2 18/2/2
f 19/2/8 14/2/8 29/2/8 31/2/8
f 11/7/1 9/7/1 27/7/1 28/7/1
f 1/2/4 8/2/4 25/2/4 24/2/4
f 5/2/6 7/2/6 14/2/6 17/2/6
f 3/2/4 5/2/4 17/2/4 16/2/4
f 4/2/1 6/2/1 18/2/1 13/2/1
f 8/2/6 4/2/6 13/2/6 15/2/6
f 27/7/6 24/7/6 25/7/6 28/7/6
f 22/7/6 21/7/6 26/7/6 23/7/6
f 26/7/6 28/7/6 32/7/6 31/7/6
f 23/7/6 26/7/6 31/7/6 29/7/6
f 28/7/6 25/7/6 30/7/6 32/7/6
f 14/2/1 7/2/1 23/2/1 29/2/1
f 7/2/1 2/2/1 22/2/1 23/2/1
f 10/7/4 12/7/4 26/7/4 21/7/4
f 20/2/5 19/2/5 31/2/5 32/2/5
f 8/2/4 15/2/4 30/2/4 25/2/4
f 43/5/9 44/1/9 47/1/9 48/1/9
f 34/8/10 33/4/10 38/3/10 37/8/10
f 45/4/11 46/4/11 42/3/11 41/4/11
f 39/4/12 40/1/12 36/1/12 35/6/12
f 35/6/13 36/1/13 44/1/13 43/5/13
f 37/8/14 38/4/14 46/3/14 45/4/14
f 41/4/15 42/4/15 33/3/15 34/8/15
f 34/8/7 37/8/7 45/4/7 41/4/7
o Cube.002
v 2.263970 0.000000 20.000000
v 2.263970 4.196348 20.000000
v 2.263970 1.216572 20.000000
v 2.263970 2.756113 20.000000
v -0.533387 0.000000 20.697119
v 2.263970 0.000000 20.697119
v 0.327883 4.178229 20.679888
v 2.263970 4.196348 20.697119
v 2.263970 2.756113 20.697119
v 0.327883 2.737994 20.679888
v 2.263970 1.216572 20.697119
v -0.533387 1.216572 20.697119
v -0.367152 0.000000 20.000000
v -0.533387 0.000000 20.200003
v 0.327883 4.178229 20.182772
v 0.494751 4.179791 19.984255
v -0.366908 1.216572 20.000000
v -0.533387 1.216572 20.200003
v 0.327883 2.737994 20.182772
v 0.495021 2.739558 19.984257
vn -1.0000 -0.0000 -0.0000
vn -0.0089 -0.0000 1.0000
vn -0.0000 -0.0000 1.0000
vn -0.0037 0.0067 1.0000
vn -0.0094 1.0000 -0.0000
vn 1.0000 -0.0000 -0.0000
vn -0.0000 -0.0000 -1.0000
vn 0.0036 -0.0062 -1.0000
vn -0.8702 0.4926 -0.0000
vn 0.0089 -0.0000 -1.0000
vn -0.7652 -0.0001 -0.6438
vn -0.7688 0.0001 -0.6395
vn -0.7058 0.3931 -0.5893
vn -0.0000 -1.0000 -0.0000
vt 0.959251 0.465608
vt 0.959251 0.603175
s 0
f 67/9/16 58/9/16 55/9/16 63/9/16
f 62/9/16 53/9/16 60/9/16 66/9/16
f 57/10/17 56/10/17 55/10/17 58/10/17
f 54/10/18 59/10/18 60/10/18 53/10/18
f 59/10/19 57/10/19 58/10/19 60/10/19
f 63/10/20 55/10/20 56/10/20 50/10/20 64/10/20
f 51/10/21 59/10/21 54/10/21 49/10/21
f 50/10/21 56/10/21 57/10/21 52/10/21
f 49/10/22 61/10/22 65/10/22 51/10/22
f 51/10/23 65/10/23 68/10/23 52/10/23
f 52/10/21 57/10/21 59/10/21 51/10/21
f 66/9/24 60/9/24 58/9/24 67/9/24
f 52/10/25 68/10/25 64/10/25 50/10/25
f 68/9/26 67/9/26 63/9/26 64/9/26
f 61/9/27 62/9/27 66/9/27 65/9/27
f 65/9/28 66/9/28 67/9/28 68/9/28
f 49/10/29 54/10/29 53/10/29 62/10/29 61/10/29
o Cube.003
v -2.281514 0.000000 20.000000
v -2.281514 4.196348 20.000000
v -2.281514 1.216572 20.000000
v -2.281514 2.756113 20.000000
v -2.281514 2.756113 20.765764
v -2.281514 4.196348 20.765764
v -2.281514 0.000000 20.765764
v -0.533387 0.000000 20.765764
v 0.327883 4.178229 20.748533
v 0.327883 2.737994 20.748533
v -2.281514 1.216572 20.765764
v -0.533387 1.216572 20.765764
v -0.533387 0.000000 20.200003
v -0.700031 0.000000 20.000000
v 0.161714 4.179383 19.983866
v 0.327883 4.178229 20.182772
v -0.533387 1.216572 20.200003
v -0.700291 1.216572 20.000000
v 0.161473 2.739149 19.983868
v 0.327883 2.737994 20.182772
vn 1.0000 -0.0000 -0.0000
vn 0.0066 -0.0000 1.0000
vn -0.0000 -0.0000 1.0000
vn 0.0040 0.0045 1.0000
vn -1.0000 -0.0000 -0.0000
vn 0.8702 -0.4926 -0.0000
vn -0.0000 -0.0000 -1.0000
vn 0.0069 1.0000 -0.0000
vn -0.0066 -0.0000 -1.0000
vn -0.0040 -0.0041 -1.0000
vn 0.7672 -0.0001 -0.6414
vn 0.7680 0.0001 -0.6404
vn 0.7015 -0.4035 -0.5874
vn -0.0000 -1.0000 -0.0000
vt 0.959251 0.465608
vt 0.959251 0.603175
s 0
f 84/11/30 77/11/30 78/11/30 88/11/30
f 85/11/30 80/11/30 76/11/30 81/11/30
f 78/12/31 77/12/31 74/12/31 73/12/31
f 76/12/32 80/12/32 79/12/32 75/12/32
f 80/12/33 78/12/33 73/12/33 79/12/33
f 71/12/34 79/12/34 73/12/34 72/12/34
f 88/11/35 78/11/35 80/11/35 85/11/35
f 82/12/36 69/12/36 71/12/36 86/12/36
f 70/12/37 74/12/37 77/12/37 84/12/37 83/12/37
f 69/12/34 75/12/34 79/12/34 71/12/34
f 87/12/38 72/12/38 70/12/38 83/12/38
f 72/12/34 73/12/34 74/12/34 70/12/34
f 86/12/39 71/12/39 72/12/39 87/12/39
f 88/11/40 87/11/40 83/11/40 84/11/40
f 81/11/41 82/11/41 86/11/41 85/11/41
f 85/11/42 86/11/42 87/11/42 88/11/42
f 81/12/43 76/12/43 75/12/43 69/12/43 82/12/43
